<?xml version="1.0" encoding="utf-8"?>
<!-- Generator: Adobe Illustrator 27.0.1, SVG Export Plug-In . SVG Version: 6.00 Build 0)  -->
<svg version="1.1" id="Layer_1" xmlns="http://www.w3.org/2000/svg" xmlns:xlink="http://www.w3.org/1999/xlink" x="0px" y="0px"
	 viewBox="0 0 154.2561 41.7646" style="enable-background:new 0 0 154.2561 41.7646;" xml:space="preserve">
<style type="text/css">
	.st0{fill:#EF4136;}
	.st1{fill:none;stroke:#000000;stroke-width:0.501;stroke-miterlimit:10;}
</style>
<path class="st0" d="M21.3568,22.0873c-0.002,0.006,0.005-0.004,0.014-0.01l0.006-0.008L21.3568,22.0873z"/>
<path d="M10.265,31.517c-0.407-1.641,0.016-3.646,1.05-5.631c0.52-0.994,1.195-1.99,1.99-2.933c0.402-0.469,0.831-0.93,1.287-1.37
	l0.353-0.334l0.341-0.304c0.227-0.203,3.239-2.772,6.779-4.295c-0.95,0.556-1.899,1.189-2.833,1.863
	c-0.935,0.67-1.869,1.412-2.731,2.18c-0.216,0.185-0.437,0.39-0.654,0.599l-0.332,0.311l-0.294,0.293
	c-0.4,0.406-0.778,0.832-1.121,1.264c-0.69,0.865-1.259,1.765-1.682,2.662c-0.853,1.787-1.12,3.564-0.669,4.927
	c0.453,1.366,1.597,2.362,3.118,2.838c0.758,0.235,1.619,0.342,2.53,0.309c0.461-0.022,0.918-0.07,1.396-0.158
	c0.491-0.092,0.973-0.209,1.467-0.364c1.967-0.599,3.947-1.599,5.483-2.779c0.205-0.148,0.35-0.279,0.526-0.418l0.3-0.264
	l0.152-0.132l0.01-0.012c-0.004,0.006-0.013,0.012-0.01,0.008l0.012-0.012l0.006-0.004c0.006-0.006,0,0,0,0l0.013-0.012l0.061-0.06
	c0.34-0.317,0.639-0.635,0.912-0.949c0.54-0.635,0.922-1.256,1.147-1.799c0.386-0.914,0.172-1.424,0.157-1.467
	c-0.152-0.373-0.773-0.914-1.315-0.115c-0.1,0.205-0.234,0.414-0.381,0.627c-0.04,0.058-0.07,0.103-0.098,0.135
	c0,0.003-0.002,0.005-0.006,0.013c-0.485,0.637-1.162,1.281-1.985,1.836c-0.584,0.391-1.176,0.695-1.748,0.918
	c-0.623,0.295-1.406,0.611-2.322,0.813c-0.641,0.146-1.337,0.222-2.014,0.171c-0.676-0.046-1.336-0.232-1.847-0.603
	c-0.257-0.186-0.474-0.414-0.636-0.684c-0.083-0.138-0.149-0.281-0.208-0.437l-0.022-0.067l-0.005-0.017l-0.006-0.02l-0.012-0.048
	l-0.021-0.098c-0.016-0.067-0.032-0.115-0.047-0.227c-0.057-0.39-0.045-0.75,0.02-1.164c0.081-0.406,0.194-0.842,0.4-1.283
	c0.39-0.891,1.025-1.811,1.803-2.674c0.392-0.431,0.814-0.859,1.274-1.269l0.085-0.075l0.046-0.039l0.072-0.068l0.157-0.129
	l0.319-0.269c0.266-0.2,0.544-0.434,0.799-0.612c2.083-1.506,4.488-2.615,6.845-3.252c0.592-0.158,1.19-0.277,1.758-0.361
	c0.588-0.086,1.166-0.127,1.706-0.121l1.173-7.475l0.563-3.618L29.477,7.45L23.929,0l-5.428,7.45l-3.894-2.188l1.987,12.72
	l-6.682-5.753l-0.319,0.616l-1.808,3.484l-6.517-1.146l2.517,6.232L0,24.533L10.265,31.517z"/>
<path d="M47.9827,24.5326l-3.788-3.117l2.522-6.237l-6.515,1.151l-2.131-4.101l-4.951,4.261c0.513,0.092,0.998,0.215,1.444,0.387
	c1.698,0.66,2.887,1.867,3.321,3.502c0.425,1.638,0.024,3.658-0.997,5.658c-0.512,1-1.178,2-1.973,2.949
	c-0.398,0.475-0.827,0.936-1.282,1.383l-0.357,0.334l-0.34,0.31c-0.229,0.202-3.773,3.135-6.807,4.325
	c0.956-0.557,1.911-1.194,2.849-1.871c0.94-0.674,1.878-1.42,2.739-2.194c0.217-0.185,0.436-0.398,0.66-0.605l0.328-0.313
	l0.296-0.293c0.397-0.412,0.768-0.838,1.111-1.273c0.684-0.871,1.253-1.777,1.667-2.678c0.841-1.799,1.089-3.572,0.62-4.943
	c-0.463-1.371-1.607-2.371-3.129-2.862c-0.761-0.244-1.62-0.357-2.533-0.332c-0.462,0.012-0.931,0.065-1.4,0.153
	c-0.493,0.088-0.974,0.203-1.471,0.353c-1.976,0.588-3.964,1.592-5.507,2.776c-0.206,0.148-0.348,0.281-0.525,0.416l-0.304,0.267
	l-0.153,0.131c0.026-0.019,0.008-0.004-0.006,0.008l-0.023,0.025l-0.065,0.065c-0.338,0.31-0.636,0.635-0.908,0.953
	c-0.538,0.637-0.927,1.258-1.143,1.805c-0.118,0.277-0.194,0.552-0.228,0.793c-0.053,0.523,0.029,1.111,0.453,1.25
	c0.47,0.171,0.839-0.395,0.839-0.395s1.299-1.693,2.374-2.42c0.16-0.107,0.314-0.203,0.47-0.297
	c0.012-0.008,0.021-0.011,0.031-0.019c0.055-0.037,0.179-0.112,0.319-0.198c0.139-0.084,0.287-0.162,0.452-0.257
	c0.672-0.364,1.712-0.877,3.001-1.17c0.639-0.147,1.334-0.229,2.014-0.186c0.677,0.043,1.342,0.223,1.853,0.588
	c0.256,0.184,0.476,0.414,0.64,0.688c0.036,0.068,0.073,0.138,0.114,0.21l0.046,0.112l0.023,0.056l0.009,0.03l0.031,0.082
	l0.045,0.193c0.015,0.068,0.036,0.121,0.044,0.229c0.064,0.398,0.039,0.754-0.026,1.166c-0.082,0.41-0.205,0.838-0.414,1.285
	c-0.399,0.885-1.034,1.795-1.816,2.658c-0.389,0.424-0.811,0.848-1.267,1.254l-0.084,0.074l-0.041,0.041l-0.079,0.065l-0.156,0.129
	l-0.318,0.267c-0.263,0.201-0.54,0.434-0.794,0.604c-2.075,1.5-4.459,2.607-6.805,3.25c-0.586,0.164-1.18,0.285-1.752,0.377
	c-0.581,0.084-1.162,0.132-1.703,0.128c-1.086,0-2.075-0.175-2.929-0.496c-0.244-0.091-0.475-0.199-0.697-0.314l-0.517,3.018
	l-0.694,4.044l12.336-4.328l12.304,4.328l-1.425-8.32l2.942-1.998L47.9827,24.5326z"/>
<path d="M24.9837,26.0502c0,0.619-0.501,1.121-1.122,1.121c-0.62,0-1.121-0.502-1.121-1.121c0-0.623,0.501-1.125,1.121-1.125
	C24.4827,24.9252,24.9837,25.4272,24.9837,26.0502"/>
<line class="st1" x1="111.4135" y1="23.2377" x2="99.0045" y2="23.2377"/>
<rect x="55.0723" y="25.5562" width="2.639" height="13.516"/>
<path d="M64.8548,39.1849c-1.481,0-2.696-0.529-3.644-1.48c-1.366-1.366-1.329-3.055-1.329-5.391c0-2.334-0.037-4.024,1.329-5.391
	c0.948-0.949,2.163-1.48,3.644-1.48c2.524,0,4.499,1.443,4.974,4.269h-2.677c-0.266-1.08-0.948-1.916-2.277-1.916
	c-0.721,0-1.311,0.266-1.689,0.701c-0.514,0.571-0.666,1.215-0.666,3.817c0,2.6,0.152,3.248,0.666,3.814
	c0.378,0.438,0.968,0.703,1.689,0.703c1.329,0,2.011-0.834,2.277-1.917h2.677C69.3538,37.7439,67.3608,39.1849,64.8548,39.1849"/>
<path d="M76.2664,29.5427l-1.709,4.918h3.36L76.2664,29.5427z M79.4184,39.0717l-0.799-2.391h-4.802l-0.817,2.391h-2.752
	l4.917-13.516h2.067l4.938,13.516H79.4184z"/>
<polygon points="87.5286,27.9095 87.5286,39.0715 84.8886,39.0715 84.8886,27.9095 81.3586,27.9095 81.3586,25.5555 
	91.0606,25.5555 91.0606,27.9095 "/>
<g>
	<path d="M100.7298,29.5659h-2.0713v-3.3516h0.3584v3.0312h1.7129V29.5659z"/>
	<path d="M101.6946,26.6098l-0.4092,0.3721v-0.7676h0.4092V26.6098z"/>
</g>
<g>
	<path d="M102.4758,26.5913h-0.3818v-0.3818h0.3818V26.5913z M102.4524,29.5659h-0.3389v-2.3154h0.3389V29.5659z"/>
	<path d="M105.1204,29.5659h-0.3389v-1.4268c0-0.2002-0.0508-0.3535-0.1504-0.458c-0.1006-0.1055-0.2402-0.1582-0.4189-0.1582
		s-0.3193,0.0537-0.4219,0.1602c-0.1016,0.1064-0.1523,0.2588-0.1523,0.4561v1.4268h-0.3389v-2.3154h0.3389v0.2539
		c0.1631-0.1885,0.3789-0.2822,0.6494-0.2822c0.251,0,0.4482,0.0723,0.5928,0.2158c0.1602,0.1572,0.2402,0.3721,0.2402,0.6455
		V29.5659z"/>
</g>
<g>
	<path d="M107.7757,28.8882c0,0.2197-0.0859,0.3916-0.2568,0.5176c-0.1709,0.125-0.3994,0.1885-0.6846,0.1885
		c-0.4082,0-0.7246-0.1113-0.9512-0.335l0.2266-0.2256c0.1689,0.1787,0.4092,0.2686,0.7197,0.2686
		c0.1943,0,0.3457-0.0342,0.4541-0.1035s0.1621-0.1709,0.1621-0.3057c0-0.2041-0.1279-0.3174-0.3857-0.3389l-0.3809-0.0332
		c-0.4619-0.0381-0.6924-0.2451-0.6924-0.6211c0-0.207,0.0791-0.3721,0.2354-0.4941c0.1572-0.123,0.3623-0.1836,0.6172-0.1836
		c0.3477,0,0.626,0.083,0.833,0.249l-0.2217,0.2217c-0.1602-0.123-0.3652-0.1836-0.6162-0.1836
		c-0.167,0-0.2939,0.0322-0.3838,0.0986c-0.0898,0.0654-0.1338,0.1602-0.1338,0.2822c0,0.1035,0.0322,0.1816,0.0986,0.2354
		c0.0654,0.0537,0.1709,0.0879,0.3154,0.1035l0.3623,0.0332c0.2197,0.0215,0.3877,0.0801,0.5059,0.1738
		C107.7161,28.5298,107.7757,28.6811,107.7757,28.8882z"/>
	<path d="M109.3284,29.5659h-0.2402c-0.1914,0-0.3379-0.0586-0.4404-0.1748c-0.1016-0.1152-0.1523-0.2646-0.1523-0.4463v-1.4355
		h-0.292v-0.2588h0.292v-0.7109h0.3389v0.7109h0.4941v0.2588h-0.4941v1.4258c0,0.2256,0.1045,0.3389,0.3145,0.3389h0.1797V29.5659z"
		/>
</g>
<g>
	<path d="M110.5569,26.5913h-0.3818v-0.3818h0.3818V26.5913z M110.5335,29.5659h-0.3389v-2.3154h0.3389V29.5659z"/>
	<path d="M112.2698,29.5659h-0.2402c-0.1914,0-0.3379-0.0586-0.4404-0.1748c-0.1016-0.1152-0.1523-0.2646-0.1523-0.4463v-1.4355
		h-0.292v-0.2588h0.292v-0.7109h0.3389v0.7109h0.4941v0.2588h-0.4941v1.4258c0,0.2256,0.1045,0.3389,0.3145,0.3389h0.1797V29.5659z"
		/>
	<path d="M114.7405,29.5659h-0.334v-0.2588c-0.167,0.1914-0.3848,0.2871-0.6543,0.2871c-0.2549,0-0.4541-0.0723-0.5977-0.2168
		c-0.1572-0.1533-0.2354-0.3701-0.2354-0.6494v-1.4775h0.3389v1.4258c0,0.2012,0.0488,0.3535,0.1475,0.459
		c0.0996,0.1045,0.2383,0.1572,0.417,0.1572s0.3203-0.0527,0.4238-0.1602c0.1035-0.1064,0.1553-0.2588,0.1553-0.4561v-1.4258h0.3389
		V29.5659z"/>
	<path d="M116.4778,29.5659h-0.2402c-0.1914,0-0.3379-0.0586-0.4404-0.1748c-0.1016-0.1152-0.1523-0.2646-0.1523-0.4463v-1.4355
		h-0.292v-0.2588h0.292v-0.7109h0.3389v0.7109h0.4941v0.2588h-0.4941v1.4258c0,0.2256,0.1045,0.3389,0.3145,0.3389h0.1797V29.5659z"
		/>
</g>
<g>
	<path d="M120.7981,28.5962c-0.0596,0.3105-0.1934,0.5547-0.4004,0.7314c-0.207,0.1777-0.4609,0.2666-0.7627,0.2666
		c-0.3389,0-0.6182-0.1104-0.8379-0.3301c-0.1475-0.1475-0.2393-0.3086-0.2773-0.4844c-0.0371-0.1758-0.0566-0.4727-0.0566-0.8896
		s0.0195-0.7139,0.0566-0.8896c0.0381-0.1758,0.1299-0.3369,0.2773-0.4844c0.2197-0.2197,0.499-0.3301,0.8379-0.3301
		c0.3047,0,0.5596,0.0879,0.7646,0.2637c0.2061,0.1758,0.3389,0.4209,0.3984,0.7344h-0.3672
		c-0.0439-0.21-0.1357-0.376-0.2754-0.4961c-0.1396-0.1211-0.3135-0.1816-0.5205-0.1816c-0.2285,0-0.4219,0.0781-0.5781,0.2354
		c-0.1006,0.1035-0.165,0.2295-0.1934,0.3789s-0.042,0.4053-0.042,0.7695s0.0137,0.6201,0.042,0.7695s0.0928,0.2754,0.1934,0.3789
		c0.1562,0.1572,0.3496,0.2354,0.5781,0.2354c0.207,0,0.3818-0.0605,0.5254-0.1816c0.1426-0.1201,0.2354-0.2861,0.2793-0.4961
		H120.7981z"/>
</g>
<g>
	<path d="M123.2776,29.5659h-0.3389v-0.2217c-0.0908,0.0908-0.1865,0.1553-0.2871,0.1934
		c-0.0996,0.0371-0.2275,0.0566-0.3809,0.0566c-0.292,0-0.5098-0.0713-0.6543-0.2119c-0.1162-0.1133-0.1738-0.2695-0.1738-0.4707
		c0-0.207,0.0693-0.3701,0.209-0.4893s0.3379-0.1797,0.5957-0.1797h0.6914V28.022c0-0.1729-0.0459-0.3008-0.1387-0.3838
		s-0.2441-0.125-0.4541-0.125c-0.1445,0-0.2598,0.0205-0.3457,0.0615c-0.0869,0.041-0.166,0.1104-0.2373,0.207l-0.2314-0.2119
		c0.0977-0.1318,0.209-0.2227,0.335-0.2725c0.125-0.0508,0.2871-0.0752,0.4844-0.0752c0.6182,0,0.9268,0.2568,0.9268,0.7715V29.5659
		z M122.9387,28.7466v-0.249h-0.6445c-0.3486,0-0.5225,0.1357-0.5225,0.4092c0,0.2637,0.1787,0.3955,0.5371,0.3955
		c0.2285,0,0.3994-0.0518,0.5127-0.1553C122.8997,29.0718,122.9387,28.938,122.9387,28.7466z"/>
	<path d="M125.9231,29.5659h-0.3389v-1.4268c0-0.2002-0.0508-0.3535-0.1504-0.458c-0.1006-0.1055-0.2402-0.1582-0.4189-0.1582
		s-0.3193,0.0537-0.4219,0.1602c-0.1016,0.1064-0.1523,0.2588-0.1523,0.4561v1.4268h-0.3389v-2.3154h0.3389v0.2539
		c0.1631-0.1885,0.3789-0.2822,0.6494-0.2822c0.251,0,0.4482,0.0723,0.5928,0.2158c0.1602,0.1572,0.2402,0.3721,0.2402,0.6455
		V29.5659z"/>
	<path d="M128.3977,29.5659h-0.3389v-0.2217c-0.0908,0.0908-0.1865,0.1553-0.2871,0.1934
		c-0.0996,0.0371-0.2275,0.0566-0.3809,0.0566c-0.292,0-0.5098-0.0713-0.6543-0.2119c-0.1162-0.1133-0.1738-0.2695-0.1738-0.4707
		c0-0.207,0.0693-0.3701,0.209-0.4893s0.3379-0.1797,0.5957-0.1797h0.6914V28.022c0-0.1729-0.0459-0.3008-0.1387-0.3838
		s-0.2441-0.125-0.4541-0.125c-0.1445,0-0.2598,0.0205-0.3457,0.0615c-0.0869,0.041-0.166,0.1104-0.2373,0.207l-0.2314-0.2119
		c0.0977-0.1318,0.209-0.2227,0.335-0.2725c0.125-0.0508,0.2871-0.0752,0.4844-0.0752c0.6182,0,0.9268,0.2568,0.9268,0.7715V29.5659
		z M128.0589,28.7466v-0.249h-0.6445c-0.3486,0-0.5225,0.1357-0.5225,0.4092c0,0.2637,0.1787,0.3955,0.5371,0.3955
		c0.2285,0,0.3994-0.0518,0.5127-0.1553C128.0198,29.0718,128.0589,28.938,128.0589,28.7466z"/>
	<path d="M130.9397,29.5659h-0.334v-0.2783c-0.0918,0.1162-0.1885,0.1963-0.292,0.2402s-0.2256,0.0664-0.3672,0.0664
		c-0.2422,0-0.4297-0.0674-0.5645-0.2031c-0.1885-0.1914-0.2832-0.5186-0.2832-0.9834c0-0.4678,0.0947-0.7949,0.2832-0.9834
		c0.1348-0.1348,0.3223-0.2021,0.5645-0.2021c0.1416,0,0.2627,0.0205,0.3643,0.0635c0.1025,0.042,0.1992,0.1201,0.29,0.2324v-1.3037
		h0.3389V29.5659z M130.5794,28.7417c0.0146-0.0938,0.0215-0.2051,0.0215-0.334s-0.0068-0.2402-0.0215-0.334
		c-0.0137-0.0938-0.04-0.1855-0.0771-0.2754c-0.0381-0.0898-0.0977-0.1572-0.1787-0.2051c-0.082-0.0469-0.1826-0.0703-0.3018-0.0703
		c-0.0977,0-0.1816,0.0166-0.2539,0.0498c-0.0723,0.0322-0.1299,0.0762-0.1719,0.1289c-0.042,0.0537-0.0752,0.1211-0.0986,0.2021
		c-0.0234,0.082-0.04,0.1611-0.0479,0.2383s-0.0117,0.165-0.0117,0.2656s0.0039,0.1895,0.0117,0.2656
		c0.0078,0.0771,0.0244,0.1562,0.0479,0.2383c0.0234,0.0811,0.0566,0.1484,0.0986,0.2021s0.0996,0.0967,0.1719,0.1299
		c0.0723,0.0322,0.1562,0.0488,0.2539,0.0488c0.1191,0,0.2197-0.0234,0.3018-0.0703c0.0811-0.0469,0.1406-0.1152,0.1787-0.2051
		C130.5393,28.9282,130.5657,28.8364,130.5794,28.7417z"/>
	<path d="M132.1497,26.5913h-0.3818v-0.3818h0.3818V26.5913z M132.1262,29.5659h-0.3389v-2.3154h0.3389V29.5659z"/>
	<path d="M134.7473,28.4975h-1.5625c0,0.2568,0.0576,0.4551,0.1738,0.5928s0.2852,0.207,0.5078,0.207
		c0.1318,0,0.2432-0.0205,0.332-0.0615c0.0898-0.04,0.1816-0.1074,0.2754-0.2021l0.2305,0.2021
		c-0.125,0.126-0.251,0.2168-0.376,0.2734c-0.126,0.0566-0.2822,0.085-0.4707,0.085c-0.3203,0-0.5693-0.0986-0.7461-0.2949
		c-0.1777-0.1953-0.2656-0.4932-0.2656-0.8916c0-0.373,0.084-0.6641,0.2539-0.873c0.1689-0.208,0.4014-0.3125,0.6963-0.3125
		c0.2979,0,0.5312,0.0996,0.6992,0.2988s0.252,0.4746,0.252,0.8262V28.4975z M134.4133,28.2427
		c-0.0127-0.1787-0.0381-0.3066-0.0762-0.3857c-0.1094-0.2314-0.29-0.3477-0.541-0.3477s-0.4316,0.1162-0.541,0.3477
		c-0.0381,0.082-0.0615,0.2109-0.0703,0.3857H134.4133z"/>
</g>
<g>
	<path d="M137.7512,29.5659h-0.3389v-1.4268c0-0.2002-0.0508-0.3535-0.1504-0.458c-0.1006-0.1055-0.2402-0.1582-0.4189-0.1582
		s-0.3193,0.0537-0.4219,0.1602c-0.1016,0.1064-0.1523,0.2588-0.1523,0.4561v1.4268h-0.3389v-2.3154h0.3389v0.2539
		c0.1631-0.1885,0.3789-0.2822,0.6494-0.2822c0.251,0,0.4482,0.0723,0.5928,0.2158c0.1602,0.1572,0.2402,0.3721,0.2402,0.6455
		V29.5659z"/>
</g>
<g>
	<path d="M100.3157,34.7427h-0.334v-0.2773c-0.0918,0.1162-0.1885,0.1963-0.292,0.2402s-0.2256,0.0654-0.3672,0.0654
		c-0.2422,0-0.4297-0.0674-0.5645-0.2021c-0.1885-0.1914-0.2832-0.5195-0.2832-0.9834c0-0.4678,0.0947-0.7959,0.2832-0.9844
		c0.1348-0.1348,0.3223-0.2021,0.5645-0.2021c0.1416,0,0.2627,0.0215,0.3643,0.0635c0.1025,0.043,0.1992,0.1201,0.29,0.2334v-1.3037
		h0.3389V34.7427z M99.9553,33.9194c0.0146-0.0947,0.0215-0.2061,0.0215-0.334c0-0.1289-0.0068-0.2402-0.0215-0.335
		c-0.0137-0.0938-0.04-0.1855-0.0771-0.2744c-0.0381-0.0898-0.0977-0.1582-0.1787-0.2051c-0.082-0.0469-0.1826-0.0703-0.3018-0.0703
		c-0.0977,0-0.1816,0.0156-0.2539,0.0488s-0.1299,0.0762-0.1719,0.1299c-0.042,0.0527-0.0752,0.1201-0.0986,0.2021
		s-0.04,0.1611-0.0479,0.2373c-0.0078,0.0771-0.0117,0.166-0.0117,0.2666s0.0039,0.1885,0.0117,0.2656s0.0244,0.1562,0.0479,0.2373
		c0.0234,0.082,0.0566,0.1494,0.0986,0.2031c0.042,0.0527,0.0996,0.0957,0.1719,0.1289s0.1562,0.0498,0.2539,0.0498
		c0.1191,0,0.2197-0.0234,0.3018-0.0713c0.0811-0.0469,0.1406-0.1152,0.1787-0.2041C99.9153,34.105,99.9417,34.0132,99.9553,33.9194
		z"/>
	<path d="M101.5628,31.7876l-0.4092,0.3711v-0.7666h0.4092V31.7876z"/>
</g>
<g>
	<path d="M103.9719,34.7427h-0.3389V34.522c-0.0908,0.0908-0.1865,0.1553-0.2871,0.1924c-0.0996,0.0381-0.2275,0.0566-0.3809,0.0566
		c-0.292,0-0.5098-0.0703-0.6543-0.2119c-0.1162-0.1123-0.1738-0.2695-0.1738-0.4707c0-0.207,0.0693-0.3701,0.209-0.4893
		s0.3379-0.1787,0.5957-0.1787h0.6914v-0.2217c0-0.1719-0.0459-0.2998-0.1387-0.3828s-0.2441-0.125-0.4541-0.125
		c-0.1445,0-0.2598,0.0205-0.3457,0.0615c-0.0869,0.04-0.166,0.1094-0.2373,0.207l-0.2314-0.2119
		c0.0977-0.1318,0.209-0.2227,0.335-0.2734c0.125-0.0498,0.2871-0.0752,0.4844-0.0752c0.6182,0,0.9268,0.2578,0.9268,0.7725V34.7427
		z M103.6331,33.9243v-0.25h-0.6445c-0.3486,0-0.5225,0.1367-0.5225,0.4102c0,0.2627,0.1787,0.3945,0.5371,0.3945
		c0.2285,0,0.3994-0.0518,0.5127-0.1553C103.594,34.2485,103.6331,34.1157,103.6331,33.9243z"/>
	<path d="M106.4671,34.0649c0,0.2197-0.0859,0.3926-0.2568,0.5176c-0.1709,0.126-0.3994,0.1885-0.6846,0.1885
		c-0.4082,0-0.7246-0.1113-0.9512-0.334l0.2266-0.2256c0.1689,0.1787,0.4092,0.2676,0.7197,0.2676
		c0.1943,0,0.3457-0.0342,0.4541-0.1035c0.1084-0.0684,0.1621-0.1709,0.1621-0.3057c0-0.2041-0.1279-0.3164-0.3857-0.3389
		l-0.3809-0.0332c-0.4619-0.0371-0.6924-0.2441-0.6924-0.6211c0-0.207,0.0791-0.3721,0.2354-0.4941
		c0.1572-0.1221,0.3623-0.1836,0.6172-0.1836c0.3477,0,0.626,0.083,0.833,0.25l-0.2217,0.2207
		c-0.1602-0.1221-0.3652-0.1836-0.6162-0.1836c-0.167,0-0.2939,0.0332-0.3838,0.0986c-0.0898,0.0664-0.1338,0.1602-0.1338,0.2832
		c0,0.1035,0.0322,0.1816,0.0986,0.2344c0.0654,0.0537,0.1709,0.0879,0.3154,0.1045l0.3623,0.0322
		c0.2197,0.0225,0.3877,0.0801,0.5059,0.1748C106.4075,33.7075,106.4671,33.8579,106.4671,34.0649z"/>
	<path d="M108.0198,34.7427h-0.2402c-0.1914,0-0.3379-0.0576-0.4404-0.1738c-0.1016-0.1162-0.1523-0.2656-0.1523-0.4473V32.686
		h-0.292v-0.2588h0.292v-0.7109h0.3389v0.7109h0.4941v0.2588h-0.4941v1.4258c0,0.2266,0.1045,0.3389,0.3145,0.3389h0.1797V34.7427z"
		/>
	<path d="M110.2366,32.6157l-0.25,0.2539c-0.0625-0.0625-0.123-0.1064-0.1807-0.1318c-0.0586-0.0254-0.1318-0.0371-0.2197-0.0371
		c-0.166,0-0.2998,0.0586-0.4023,0.1758c-0.1016,0.1182-0.1523,0.2666-0.1523,0.4453v1.4209h-0.3389v-2.3154h0.3389v0.2822
		c0.0625-0.0967,0.1523-0.1729,0.2705-0.2275c0.1172-0.0557,0.2441-0.083,0.3789-0.083
		C109.9065,32.3989,110.0921,32.4712,110.2366,32.6157z"/>
	<path d="M112.4436,33.5854c0,0.4229-0.0947,0.7305-0.2822,0.9219c-0.1699,0.1758-0.3906,0.2637-0.6641,0.2637
		c-0.2725,0-0.4941-0.0879-0.6631-0.2637c-0.1885-0.1914-0.2832-0.499-0.2832-0.9219c0-0.4268,0.0947-0.7344,0.2832-0.9229
		c0.1689-0.1758,0.3906-0.2637,0.6631-0.2637c0.2734,0,0.4941,0.0879,0.6641,0.2637
		C112.3489,32.8511,112.4436,33.1587,112.4436,33.5854z M112.1048,33.5854c0-0.3545-0.0615-0.5938-0.1836-0.7158
		c-0.1133-0.1133-0.2539-0.1689-0.4238-0.1689c-0.166,0-0.3057,0.0557-0.4189,0.1689c-0.125,0.126-0.1885,0.3643-0.1885,0.7158
		s0.0635,0.5898,0.1885,0.7148c0.1133,0.1133,0.2529,0.1699,0.4189,0.1699c0.1699,0,0.3105-0.0566,0.4238-0.1699
		C112.0432,34.1753,112.1048,33.937,112.1048,33.5854z"/>
	<path d="M115.009,33.5854c0,0.4639-0.0938,0.792-0.2822,0.9834c-0.1348,0.1348-0.3232,0.2021-0.5645,0.2021
		c-0.2764,0-0.4941-0.1006-0.6543-0.3008v1.3086h-0.3389v-3.3516h0.3389v0.2734c0.1602-0.2012,0.3779-0.3018,0.6543-0.3018
		c0.2412,0,0.4297,0.0674,0.5645,0.2021C114.9153,32.7895,115.009,33.1177,115.009,33.5854z M114.6487,33.9194
		c0.0146-0.0947,0.0215-0.2061,0.0215-0.334c0-0.1289-0.0068-0.2402-0.0215-0.335c-0.0137-0.0938-0.0391-0.1855-0.0771-0.2744
		c-0.0381-0.0898-0.0977-0.1582-0.1787-0.2051c-0.082-0.0469-0.1826-0.0703-0.3018-0.0703c-0.0967,0-0.1816,0.0156-0.2539,0.0488
		s-0.1289,0.0762-0.1719,0.1299c-0.042,0.0527-0.0752,0.1201-0.0986,0.2021s-0.0391,0.1611-0.0469,0.2373
		c-0.0078,0.0771-0.0117,0.166-0.0117,0.2666s0.0039,0.1885,0.0117,0.2656s0.0234,0.1562,0.0469,0.2373
		c0.0234,0.082,0.0566,0.1494,0.0986,0.2031c0.043,0.0527,0.0996,0.0957,0.1719,0.1289s0.1572,0.0498,0.2539,0.0498
		c0.1191,0,0.2197-0.0234,0.3018-0.0713c0.0811-0.0469,0.1406-0.1152,0.1787-0.2041
		C114.6096,34.105,114.635,34.0132,114.6487,33.9194z"/>
	<path d="M117.5549,34.7427h-0.3389V33.312c0-0.2002-0.0498-0.3525-0.1484-0.4561s-0.2373-0.1553-0.416-0.1553
		c-0.1826,0-0.3242,0.0518-0.4268,0.1553c-0.1016,0.1035-0.1523,0.2559-0.1523,0.4561v1.4307h-0.3389v-3.3506h0.3389v1.2891
		c0.1689-0.1875,0.3857-0.2822,0.6494-0.2822c0.2598,0,0.4639,0.0771,0.6113,0.2305c0.1475,0.1543,0.2217,0.3623,0.2217,0.626
		V34.7427z"/>
	<path d="M120.0071,32.4272l-1.0537,2.876c-0.0439,0.1221-0.0986,0.2129-0.165,0.2725c-0.1094,0.1064-0.2607,0.1602-0.4521,0.1602
		h-0.1455V35.435h0.1035c0.1133,0,0.1953-0.0205,0.2471-0.0615s0.0967-0.1162,0.1338-0.2256l0.165-0.4521l-0.833-2.2686h0.3672
		l0.6357,1.8594l0.6299-1.8594H120.0071z"/>
	<path d="M122.1536,34.0649c0,0.2197-0.0859,0.3926-0.2568,0.5176c-0.1709,0.126-0.3994,0.1885-0.6846,0.1885
		c-0.4082,0-0.7246-0.1113-0.9512-0.334l0.2266-0.2256c0.1689,0.1787,0.4092,0.2676,0.7197,0.2676
		c0.1943,0,0.3457-0.0342,0.4541-0.1035c0.1084-0.0684,0.1621-0.1709,0.1621-0.3057c0-0.2041-0.1279-0.3164-0.3857-0.3389
		l-0.3809-0.0332c-0.4619-0.0371-0.6924-0.2441-0.6924-0.6211c0-0.207,0.0791-0.3721,0.2354-0.4941
		c0.1572-0.1221,0.3623-0.1836,0.6172-0.1836c0.3477,0,0.626,0.083,0.833,0.25l-0.2217,0.2207
		c-0.1602-0.1221-0.3652-0.1836-0.6162-0.1836c-0.167,0-0.2939,0.0332-0.3838,0.0986c-0.0898,0.0664-0.1338,0.1602-0.1338,0.2832
		c0,0.1035,0.0322,0.1816,0.0986,0.2344c0.0654,0.0537,0.1709,0.0879,0.3154,0.1045l0.3623,0.0322
		c0.2197,0.0225,0.3877,0.0801,0.5059,0.1748C122.094,33.7075,122.1536,33.8579,122.1536,34.0649z"/>
	<path d="M123.179,31.7681h-0.3818v-0.3809h0.3818V31.7681z M123.1555,34.7427h-0.3389v-2.3154h0.3389V34.7427z"/>
	<path d="M125.721,35.7788h-0.3389v-1.3086c-0.1602,0.2002-0.3779,0.3008-0.6543,0.3008c-0.2422,0-0.4297-0.0674-0.5645-0.2021
		c-0.1885-0.1914-0.2832-0.5195-0.2832-0.9834c0-0.4678,0.0947-0.7959,0.2832-0.9844c0.1348-0.1348,0.3223-0.2021,0.5645-0.2021
		c0.2793,0,0.499,0.1006,0.6592,0.3018v-0.2734h0.334V35.7788z M125.3606,33.9194c0.0146-0.0947,0.0215-0.2061,0.0215-0.334
		c0-0.1289-0.0068-0.2402-0.0215-0.335c-0.0137-0.0938-0.04-0.1855-0.0771-0.2744c-0.0381-0.0898-0.0977-0.1582-0.1787-0.2051
		c-0.082-0.0469-0.1826-0.0703-0.3018-0.0703c-0.0977,0-0.1816,0.0156-0.2539,0.0488s-0.1299,0.0762-0.1719,0.1299
		c-0.042,0.0527-0.0752,0.1201-0.0986,0.2021s-0.04,0.1611-0.0479,0.2373c-0.0078,0.0771-0.0117,0.166-0.0117,0.2666
		s0.0039,0.1885,0.0117,0.2656s0.0244,0.1562,0.0479,0.2373c0.0234,0.082,0.0566,0.1494,0.0986,0.2031
		c0.042,0.0527,0.0996,0.0957,0.1719,0.1289s0.1562,0.0498,0.2539,0.0498c0.1191,0,0.2197-0.0234,0.3018-0.0713
		c0.0811-0.0469,0.1406-0.1152,0.1787-0.2041C125.3206,34.105,125.3469,34.0132,125.3606,33.9194z"/>
	<path d="M128.3655,34.7427h-0.334v-0.2588c-0.167,0.1914-0.3848,0.2871-0.6543,0.2871c-0.2549,0-0.4541-0.0723-0.5977-0.2168
		c-0.1572-0.1533-0.2354-0.3701-0.2354-0.6494v-1.4775h0.3389v1.4258c0,0.2012,0.0488,0.3545,0.1475,0.459
		c0.0996,0.1055,0.2383,0.1582,0.417,0.1582s0.3203-0.0537,0.4238-0.1602s0.1553-0.2588,0.1553-0.457v-1.4258h0.3389V34.7427z"/>
	<path d="M130.9876,33.6743h-1.5625c0,0.2578,0.0576,0.4551,0.1738,0.5928c0.1162,0.1387,0.2852,0.208,0.5078,0.208
		c0.1318,0,0.2432-0.0205,0.332-0.0615c0.0898-0.041,0.1816-0.1084,0.2754-0.2021l0.2305,0.2021
		c-0.125,0.125-0.251,0.2168-0.376,0.2725c-0.126,0.0566-0.2822,0.085-0.4707,0.085c-0.3203,0-0.5693-0.0977-0.7461-0.2939
		c-0.1777-0.1963-0.2656-0.4932-0.2656-0.8916c0-0.374,0.084-0.665,0.2539-0.873c0.1689-0.209,0.4014-0.3135,0.6963-0.3135
		c0.2979,0,0.5312,0.0996,0.6992,0.2988s0.252,0.4746,0.252,0.8262V33.6743z M130.6536,33.4204
		c-0.0127-0.1787-0.0381-0.3076-0.0762-0.3857c-0.1094-0.2324-0.29-0.3486-0.541-0.3486s-0.4316,0.1162-0.541,0.3486
		c-0.0381,0.0811-0.0615,0.21-0.0703,0.3857H130.6536z"/>
</g>
<g>
	<path d="M134.8137,34.7427h-0.2402c-0.1914,0-0.3379-0.0576-0.4404-0.1738c-0.1016-0.1162-0.1523-0.2656-0.1523-0.4473V32.686
		h-0.292v-0.2588h0.292v-0.7109h0.3389v0.7109h0.4941v0.2588h-0.4941v1.4258c0,0.2266,0.1045,0.3389,0.3145,0.3389h0.1797V34.7427z"
		/>
</g>
<g>
	<path d="M137.3274,34.7427h-0.3389V33.312c0-0.2002-0.0498-0.3525-0.1484-0.4561s-0.2373-0.1553-0.416-0.1553
		c-0.1826,0-0.3242,0.0518-0.4268,0.1553c-0.1016,0.1035-0.1523,0.2559-0.1523,0.4561v1.4307h-0.3389v-3.3506h0.3389v1.2891
		c0.1689-0.1875,0.3857-0.2822,0.6494-0.2822c0.2598,0,0.4639,0.0771,0.6113,0.2305c0.1475,0.1543,0.2217,0.3623,0.2217,0.626
		V34.7427z"/>
	<path d="M139.926,33.6743h-1.5625c0,0.2578,0.0576,0.4551,0.1738,0.5928c0.1162,0.1387,0.2852,0.208,0.5078,0.208
		c0.1318,0,0.2432-0.0205,0.332-0.0615c0.0898-0.041,0.1816-0.1084,0.2754-0.2021l0.2305,0.2021
		c-0.125,0.125-0.251,0.2168-0.376,0.2725c-0.126,0.0566-0.2822,0.085-0.4707,0.085c-0.3203,0-0.5693-0.0977-0.7461-0.2939
		c-0.1777-0.1963-0.2656-0.4932-0.2656-0.8916c0-0.374,0.084-0.665,0.2539-0.873c0.1689-0.209,0.4014-0.3135,0.6963-0.3135
		c0.2979,0,0.5312,0.0996,0.6992,0.2988s0.252,0.4746,0.252,0.8262V33.6743z M139.5921,33.4204
		c-0.0127-0.1787-0.0381-0.3076-0.0762-0.3857c-0.1094-0.2324-0.29-0.3486-0.541-0.3486s-0.4316,0.1162-0.541,0.3486
		c-0.0381,0.0811-0.0615,0.21-0.0703,0.3857H139.5921z M139.5725,31.227l-0.4941,0.7197h-0.3242l0.4277-0.7197H139.5725z"/>
	<path d="M142.4153,33.5854c0,0.4229-0.0947,0.7305-0.2822,0.9219c-0.1699,0.1758-0.3906,0.2637-0.6641,0.2637
		c-0.2725,0-0.4941-0.0879-0.6631-0.2637c-0.1885-0.1914-0.2832-0.499-0.2832-0.9219c0-0.4268,0.0947-0.7344,0.2832-0.9229
		c0.1689-0.1758,0.3906-0.2637,0.6631-0.2637c0.2734,0,0.4941,0.0879,0.6641,0.2637
		C142.3206,32.8511,142.4153,33.1587,142.4153,33.5854z M142.0764,33.5854c0-0.3545-0.0615-0.5938-0.1836-0.7158
		c-0.1133-0.1133-0.2539-0.1689-0.4238-0.1689c-0.166,0-0.3057,0.0557-0.4189,0.1689c-0.125,0.126-0.1885,0.3643-0.1885,0.7158
		s0.0635,0.5898,0.1885,0.7148c0.1133,0.1133,0.2529,0.1699,0.4189,0.1699c0.1699,0,0.3105-0.0566,0.4238-0.1699
		C142.0149,34.1753,142.0764,33.937,142.0764,33.5854z"/>
	<path d="M144.6839,32.6157l-0.25,0.2539c-0.0625-0.0625-0.123-0.1064-0.1807-0.1318c-0.0586-0.0254-0.1318-0.0371-0.2197-0.0371
		c-0.166,0-0.2998,0.0586-0.4023,0.1758c-0.1016,0.1182-0.1523,0.2666-0.1523,0.4453v1.4209h-0.3389v-2.3154h0.3389v0.2822
		c0.0625-0.0967,0.1523-0.1729,0.2705-0.2275c0.1172-0.0557,0.2441-0.083,0.3789-0.083
		C144.3538,32.3989,144.5393,32.4712,144.6839,32.6157z"/>
</g>
<g>
	<path d="M145.9212,31.7681h-0.3818v-0.3809h0.3818V31.7681z M145.8977,34.7427h-0.3389v-2.3154h0.3389V34.7427z"/>
	<path d="M148.4622,35.7788h-0.3389v-1.3086c-0.1602,0.2002-0.3779,0.3008-0.6543,0.3008c-0.2422,0-0.4297-0.0674-0.5645-0.2021
		c-0.1885-0.1914-0.2832-0.5195-0.2832-0.9834c0-0.4678,0.0947-0.7959,0.2832-0.9844c0.1348-0.1348,0.3223-0.2021,0.5645-0.2021
		c0.2793,0,0.499,0.1006,0.6592,0.3018v-0.2734h0.334V35.7788z M148.1018,33.9194c0.0146-0.0947,0.0215-0.2061,0.0215-0.334
		c0-0.1289-0.0068-0.2402-0.0215-0.335c-0.0137-0.0938-0.04-0.1855-0.0771-0.2744c-0.0381-0.0898-0.0977-0.1582-0.1787-0.2051
		c-0.082-0.0469-0.1826-0.0703-0.3018-0.0703c-0.0977,0-0.1816,0.0156-0.2539,0.0488s-0.1299,0.0762-0.1719,0.1299
		c-0.042,0.0527-0.0752,0.1201-0.0986,0.2021s-0.04,0.1611-0.0479,0.2373c-0.0078,0.0771-0.0117,0.166-0.0117,0.2666
		s0.0039,0.1885,0.0117,0.2656s0.0244,0.1562,0.0479,0.2373c0.0234,0.082,0.0566,0.1494,0.0986,0.2031
		c0.042,0.0527,0.0996,0.0957,0.1719,0.1289s0.1562,0.0498,0.2539,0.0498c0.1191,0,0.2197-0.0234,0.3018-0.0713
		c0.0811-0.0469,0.1406-0.1152,0.1787-0.2041C148.0618,34.105,148.0882,34.0132,148.1018,33.9194z"/>
</g>
<g>
	<path d="M151.259,34.7427h-0.334v-0.2588c-0.167,0.1914-0.3848,0.2871-0.6543,0.2871c-0.2549,0-0.4541-0.0723-0.5977-0.2168
		c-0.1572-0.1533-0.2354-0.3701-0.2354-0.6494v-1.4775h0.3389v1.4258c0,0.2012,0.0488,0.3545,0.1475,0.459
		c0.0996,0.1055,0.2383,0.1582,0.417,0.1582s0.3203-0.0537,0.4238-0.1602s0.1553-0.2588,0.1553-0.457v-1.4258h0.3389V34.7427z"/>
</g>
<g>
	<path d="M153.9602,33.6743h-1.5625c0,0.2578,0.0576,0.4551,0.1738,0.5928c0.1162,0.1387,0.2852,0.208,0.5078,0.208
		c0.1318,0,0.2432-0.0205,0.332-0.0615c0.0898-0.041,0.1816-0.1084,0.2754-0.2021l0.2305,0.2021
		c-0.125,0.125-0.251,0.2168-0.376,0.2725c-0.126,0.0566-0.2822,0.085-0.4707,0.085c-0.3203,0-0.5693-0.0977-0.7461-0.2939
		c-0.1777-0.1963-0.2656-0.4932-0.2656-0.8916c0-0.374,0.084-0.665,0.2539-0.873c0.1689-0.209,0.4014-0.3135,0.6963-0.3135
		c0.2979,0,0.5312,0.0996,0.6992,0.2988s0.252,0.4746,0.252,0.8262V33.6743z M153.6262,33.4204
		c-0.0127-0.1787-0.0381-0.3076-0.0762-0.3857c-0.1094-0.2324-0.29-0.3486-0.541-0.3486s-0.4316,0.1162-0.541,0.3486
		c-0.0381,0.0811-0.0615,0.21-0.0703,0.3857H153.6262z"/>
</g>
<g>
	<path d="M100.8665,13.686c-0.0596,0.311-0.1934,0.5547-0.4004,0.7319s-0.4609,0.2661-0.7627,0.2661
		c-0.3389,0-0.6182-0.1099-0.8379-0.3296c-0.1475-0.1475-0.2393-0.3091-0.2773-0.4849c-0.0371-0.1758-0.0566-0.4722-0.0566-0.8892
		c0-0.4175,0.0195-0.7139,0.0566-0.8896c0.0381-0.1758,0.1299-0.3374,0.2773-0.4849c0.2197-0.2197,0.499-0.3296,0.8379-0.3296
		c0.3047,0,0.5596,0.0879,0.7646,0.2637c0.2061,0.1758,0.3389,0.4204,0.3984,0.7344h-0.3672
		c-0.0439-0.2104-0.1357-0.376-0.2754-0.4966s-0.3135-0.1812-0.5205-0.1812c-0.2285,0-0.4219,0.0781-0.5781,0.2354
		c-0.1006,0.1035-0.165,0.2295-0.1934,0.3789c-0.0283,0.1489-0.042,0.4053-0.042,0.7695c0,0.3638,0.0137,0.6201,0.042,0.7695
		c0.0283,0.1489,0.0928,0.2749,0.1934,0.3784c0.1562,0.1572,0.3496,0.2354,0.5781,0.2354c0.207,0,0.3818-0.0601,0.5254-0.1812
		c0.1426-0.1206,0.2354-0.2861,0.2793-0.4966H100.8665z"/>
	<path d="M103.2473,14.6557h-0.3389v-0.2212c-0.0908,0.0908-0.1865,0.1553-0.2871,0.1929
		c-0.0996,0.0376-0.2275,0.0566-0.3809,0.0566c-0.292,0-0.5098-0.0708-0.6543-0.2119c-0.1162-0.1128-0.1738-0.2695-0.1738-0.4707
		c0-0.207,0.0693-0.3701,0.209-0.4893s0.3379-0.1792,0.5957-0.1792h0.6914v-0.2212c0-0.1724-0.0459-0.3003-0.1387-0.3833
		s-0.2441-0.125-0.4541-0.125c-0.1445,0-0.2598,0.0205-0.3457,0.0615c-0.0869,0.0405-0.166,0.1099-0.2373,0.207l-0.2314-0.2119
		c0.0977-0.1318,0.209-0.2227,0.335-0.2729c0.125-0.0503,0.2871-0.0752,0.4844-0.0752c0.6182,0,0.9268,0.2573,0.9268,0.772V14.6557z
		 M102.9085,13.8369v-0.2495h-0.6445c-0.3486,0-0.5225,0.1362-0.5225,0.4097c0,0.2632,0.1787,0.395,0.5371,0.395
		c0.2285,0,0.3994-0.0518,0.5127-0.1553C102.8694,14.1616,102.9085,14.0283,102.9085,13.8369z"/>
</g>
<g>
	<path d="M106.1048,14.6557h-0.3389v-1.4263c0-0.2007-0.0508-0.3535-0.1504-0.4585c-0.1006-0.1055-0.2402-0.1577-0.4189-0.1577
		s-0.3193,0.0532-0.4219,0.1597c-0.1016,0.1069-0.1523,0.2593-0.1523,0.4565v1.4263h-0.3389v-2.3154h0.3389v0.2539
		c0.1631-0.188,0.3789-0.2822,0.6494-0.2822c0.251,0,0.4482,0.0723,0.5928,0.2163c0.1602,0.1572,0.2402,0.3721,0.2402,0.645V14.6557
		z"/>
	<path d="M108.5803,14.6557h-0.3389v-0.2212c-0.0908,0.0908-0.1865,0.1553-0.2871,0.1929
		c-0.0996,0.0376-0.2275,0.0566-0.3809,0.0566c-0.292,0-0.5098-0.0708-0.6543-0.2119c-0.1162-0.1128-0.1738-0.2695-0.1738-0.4707
		c0-0.207,0.0693-0.3701,0.209-0.4893s0.3379-0.1792,0.5957-0.1792h0.6914v-0.2212c0-0.1724-0.0459-0.3003-0.1387-0.3833
		s-0.2441-0.125-0.4541-0.125c-0.1445,0-0.2598,0.0205-0.3457,0.0615c-0.0869,0.0405-0.166,0.1099-0.2373,0.207l-0.2314-0.2119
		c0.0977-0.1318,0.209-0.2227,0.335-0.2729c0.125-0.0503,0.2871-0.0752,0.4844-0.0752c0.6182,0,0.9268,0.2573,0.9268,0.772V14.6557z
		 M108.2415,13.8369v-0.2495h-0.6445c-0.3486,0-0.5225,0.1362-0.5225,0.4097c0,0.2632,0.1787,0.395,0.5371,0.395
		c0.2285,0,0.3994-0.0518,0.5127-0.1553C108.2024,14.1616,108.2415,14.0283,108.2415,13.8369z"/>
	<path d="M111.1214,14.6557h-0.334v-0.2778c-0.0918,0.1162-0.1885,0.1963-0.292,0.2402s-0.2256,0.0659-0.3672,0.0659
		c-0.2422,0-0.4297-0.0674-0.5645-0.2026c-0.1885-0.1914-0.2832-0.519-0.2832-0.9834c0-0.4678,0.0947-0.7954,0.2832-0.9839
		c0.1348-0.1348,0.3223-0.2021,0.5645-0.2021c0.1416,0,0.2627,0.021,0.3643,0.0635c0.1025,0.0425,0.1992,0.1201,0.29,0.2329v-1.3037
		h0.3389V14.6557z M110.761,13.832c0.0146-0.0942,0.0215-0.2056,0.0215-0.334c0-0.1289-0.0068-0.2402-0.0215-0.3345
		c-0.0137-0.0938-0.04-0.1855-0.0771-0.2749c-0.0381-0.0898-0.0977-0.1577-0.1787-0.2051c-0.082-0.0469-0.1826-0.0703-0.3018-0.0703
		c-0.0977,0-0.1816,0.0161-0.2539,0.0493c-0.0723,0.0327-0.1299,0.0762-0.1719,0.1294s-0.0752,0.1206-0.0986,0.2021
		c-0.0234,0.082-0.04,0.1611-0.0479,0.2378c-0.0078,0.0771-0.0117,0.1655-0.0117,0.2661s0.0039,0.189,0.0117,0.2656
		c0.0078,0.0771,0.0244,0.1562,0.0479,0.2378s0.0566,0.1489,0.0986,0.2026c0.042,0.0532,0.0996,0.0962,0.1719,0.1294
		c0.0723,0.0327,0.1562,0.0493,0.2539,0.0493c0.1191,0,0.2197-0.0234,0.3018-0.0708c0.0811-0.0469,0.1406-0.1152,0.1787-0.2046
		C110.721,14.0181,110.7473,13.9263,110.761,13.832z"/>
	<path d="M112.3313,11.6811h-0.3818v-0.3813h0.3818V11.6811z M112.3079,14.6557h-0.3389v-2.3154h0.3389V14.6557z"/>
	<path d="M114.8069,14.6557h-0.3389v-0.2212c-0.0908,0.0908-0.1865,0.1553-0.2871,0.1929
		c-0.0996,0.0376-0.2275,0.0566-0.3809,0.0566c-0.292,0-0.5098-0.0708-0.6543-0.2119c-0.1162-0.1128-0.1738-0.2695-0.1738-0.4707
		c0-0.207,0.0693-0.3701,0.209-0.4893s0.3379-0.1792,0.5957-0.1792h0.6914v-0.2212c0-0.1724-0.0459-0.3003-0.1387-0.3833
		s-0.2441-0.125-0.4541-0.125c-0.1445,0-0.2598,0.0205-0.3457,0.0615c-0.0869,0.0405-0.166,0.1099-0.2373,0.207l-0.2314-0.2119
		c0.0977-0.1318,0.209-0.2227,0.335-0.2729c0.125-0.0503,0.2871-0.0752,0.4844-0.0752c0.6182,0,0.9268,0.2573,0.9268,0.772V14.6557z
		 M114.468,13.8369v-0.2495h-0.6445c-0.3486,0-0.5225,0.1362-0.5225,0.4097c0,0.2632,0.1787,0.395,0.5371,0.395
		c0.2285,0,0.3994-0.0518,0.5127-0.1553C114.429,14.1616,114.468,14.0283,114.468,13.8369z"/>
	<path d="M117.4514,14.6557h-0.3389v-1.4263c0-0.2007-0.0508-0.3535-0.1504-0.4585c-0.1006-0.1055-0.2402-0.1577-0.4189-0.1577
		s-0.3193,0.0532-0.4219,0.1597c-0.1016,0.1069-0.1523,0.2593-0.1523,0.4565v1.4263h-0.3389v-2.3154h0.3389v0.2539
		c0.1631-0.188,0.3789-0.2822,0.6494-0.2822c0.251,0,0.4482,0.0723,0.5928,0.2163c0.1602,0.1572,0.2402,0.3721,0.2402,0.645V14.6557
		z"/>
</g>
<g>
	<path d="M120.1956,14.6557h-0.3584v-3.3511h0.3584V14.6557z"/>
</g>
<g>
	<path d="M122.9397,14.6557h-0.3389v-1.4263c0-0.2007-0.0508-0.3535-0.1504-0.4585c-0.1006-0.1055-0.2402-0.1577-0.4189-0.1577
		s-0.3193,0.0532-0.4219,0.1597c-0.1016,0.1069-0.1523,0.2593-0.1523,0.4565v1.4263h-0.3389v-2.3154h0.3389v0.2539
		c0.1631-0.188,0.3789-0.2822,0.6494-0.2822c0.251,0,0.4482,0.0723,0.5928,0.2163c0.1602,0.1572,0.2402,0.3721,0.2402,0.645V14.6557
		z"/>
	<path d="M125.4348,13.978c0,0.2197-0.0859,0.3921-0.2568,0.5176s-0.3994,0.1885-0.6846,0.1885
		c-0.4082,0-0.7246-0.1113-0.9512-0.3345l0.2266-0.2256c0.1689,0.1787,0.4092,0.2681,0.7197,0.2681
		c0.1943,0,0.3457-0.0342,0.4541-0.1035c0.1084-0.0688,0.1621-0.1709,0.1621-0.3057c0-0.2041-0.1279-0.3169-0.3857-0.3389
		l-0.3809-0.0332c-0.4619-0.0376-0.6924-0.2446-0.6924-0.6211c0-0.207,0.0791-0.3721,0.2354-0.4941
		c0.1572-0.1226,0.3623-0.1836,0.6172-0.1836c0.3477,0,0.626,0.083,0.833,0.2495l-0.2217,0.2212
		c-0.1602-0.1226-0.3652-0.1836-0.6162-0.1836c-0.167,0-0.2939,0.0327-0.3838,0.0986s-0.1338,0.1602-0.1338,0.2827
		c0,0.1035,0.0322,0.1816,0.0986,0.2349c0.0654,0.0537,0.1709,0.0879,0.3154,0.104l0.3623,0.0327
		c0.2197,0.022,0.3877,0.0801,0.5059,0.1743C125.3753,13.6201,125.4348,13.771,125.4348,13.978z"/>
	<path d="M126.9876,14.6557h-0.2402c-0.1914,0-0.3379-0.0581-0.4404-0.1743c-0.1016-0.1157-0.1523-0.2651-0.1523-0.4468v-1.4355
		h-0.292v-0.2588h0.292v-0.7109h0.3389v0.7109h0.4941v0.2588h-0.4941v1.4258c0,0.2261,0.1045,0.3389,0.3145,0.3389h0.1797V14.6557z"
		/>
	<path d="M128.0227,11.6811h-0.3818v-0.3813h0.3818V11.6811z M127.9993,14.6557h-0.3389v-2.3154h0.3389V14.6557z"/>
	<path d="M129.7356,14.6557h-0.2402c-0.1914,0-0.3379-0.0581-0.4404-0.1743c-0.1016-0.1157-0.1523-0.2651-0.1523-0.4468v-1.4355
		h-0.292v-0.2588h0.292v-0.7109h0.3389v0.7109h0.4941v0.2588h-0.4941v1.4258c0,0.2261,0.1045,0.3389,0.3145,0.3389h0.1797V14.6557z"
		/>
	<path d="M132.2063,14.6557h-0.334V14.397c-0.167,0.1914-0.3848,0.2871-0.6543,0.2871c-0.2549,0-0.4541-0.0723-0.5977-0.2168
		c-0.1572-0.1533-0.2354-0.3701-0.2354-0.6494v-1.4775h0.3389v1.4258c0,0.2012,0.0488,0.354,0.1475,0.459
		c0.0996,0.105,0.2383,0.1577,0.417,0.1577s0.3203-0.0532,0.4238-0.1602c0.1035-0.1064,0.1553-0.2588,0.1553-0.4565v-1.4258h0.3389
		V14.6557z"/>
</g>
<g>
	<path d="M134.4895,14.6557h-0.2402c-0.1914,0-0.3379-0.0581-0.4404-0.1743c-0.1016-0.1157-0.1523-0.2651-0.1523-0.4468v-1.4355
		h-0.292v-0.2588h0.292v-0.7109h0.3389v0.7109h0.4941v0.2588h-0.4941v1.4258c0,0.2261,0.1045,0.3389,0.3145,0.3389h0.1797V14.6557z"
		/>
	<path d="M136.9368,13.5874h-1.5625c0,0.2573,0.0576,0.4551,0.1738,0.5928c0.1162,0.1382,0.2852,0.2075,0.5078,0.2075
		c0.1318,0,0.2432-0.0205,0.332-0.0615c0.0898-0.0405,0.1816-0.1079,0.2754-0.2021l0.2305,0.2021
		c-0.125,0.1255-0.251,0.2168-0.376,0.2729c-0.126,0.0566-0.2822,0.085-0.4707,0.085c-0.3203,0-0.5693-0.0981-0.7461-0.2944
		c-0.1777-0.1958-0.2656-0.4932-0.2656-0.8916c0-0.3735,0.084-0.6646,0.2539-0.873c0.1689-0.2085,0.4014-0.313,0.6963-0.313
		c0.2979,0,0.5312,0.0996,0.6992,0.2988s0.252,0.4746,0.252,0.8262V13.5874z M136.6028,13.333
		c-0.0127-0.1787-0.0381-0.3071-0.0762-0.3857c-0.1094-0.2319-0.29-0.3481-0.541-0.3481s-0.4316,0.1162-0.541,0.3481
		c-0.0381,0.0815-0.0615,0.2104-0.0703,0.3857H136.6028z"/>
</g>
<g>
	<path d="M139.7229,12.5991h-0.4941v2.0566h-0.3389v-2.0566h-0.2969v-0.2588h0.2969v-0.4238c0-0.1816,0.0508-0.3311,0.1523-0.4473
		c0.1025-0.1157,0.248-0.1738,0.4355-0.1738h0.2451v0.2915h-0.1836c-0.207,0-0.3105,0.1133-0.3105,0.3389v0.4146h0.4941V12.5991z"/>
</g>
<g>
	<path d="M142.0999,13.498c0,0.4233-0.0947,0.731-0.2822,0.9224c-0.1699,0.1758-0.3906,0.2637-0.6641,0.2637
		c-0.2725,0-0.4941-0.0879-0.6631-0.2637c-0.1885-0.1914-0.2832-0.499-0.2832-0.9224c0-0.4268,0.0947-0.7344,0.2832-0.9224
		c0.1689-0.1758,0.3906-0.2637,0.6631-0.2637c0.2734,0,0.4941,0.0879,0.6641,0.2637
		C142.0051,12.7637,142.0999,13.0713,142.0999,13.498z M141.761,13.498c0-0.3545-0.0615-0.5933-0.1836-0.7153
		c-0.1133-0.1133-0.2539-0.1694-0.4238-0.1694c-0.166,0-0.3057,0.0562-0.4189,0.1694c-0.125,0.1255-0.1885,0.3638-0.1885,0.7153
		s0.0635,0.5898,0.1885,0.7153c0.1133,0.1128,0.2529,0.1694,0.4189,0.1694c0.1699,0,0.3105-0.0566,0.4238-0.1694
		C141.6995,14.0879,141.761,13.8496,141.761,13.498z"/>
	<path d="M144.3684,12.5283l-0.25,0.2544c-0.0625-0.063-0.123-0.1069-0.1807-0.1318c-0.0586-0.0254-0.1318-0.0376-0.2197-0.0376
		c-0.166,0-0.2998,0.0586-0.4023,0.1763c-0.1016,0.1177-0.1523,0.2661-0.1523,0.4448v1.4214h-0.3389v-2.3154h0.3389v0.2822
		c0.0625-0.0972,0.1523-0.1733,0.2705-0.228c0.1172-0.0552,0.2441-0.0825,0.3789-0.0825
		C144.0383,12.312,144.2239,12.3843,144.3684,12.5283z"/>
</g>
<g>
	<path d="M100.6116,16.8022h-0.9688v3.0308h-0.3584v-3.0308h-0.9688v-0.3203h2.2959V16.8022z"/>
	<path d="M102.9983,19.833h-0.3389v-1.4307c0-0.2007-0.0498-0.353-0.1484-0.4565s-0.2373-0.1553-0.416-0.1553
		c-0.1826,0-0.3242,0.0518-0.4268,0.1553c-0.1016,0.1035-0.1523,0.2559-0.1523,0.4565v1.4307h-0.3389v-3.3511h0.3389v1.2896
		c0.1689-0.188,0.3857-0.2822,0.6494-0.2822c0.2598,0,0.4639,0.0767,0.6113,0.2305s0.2217,0.3623,0.2217,0.626V19.833z"/>
</g>
<g>
	<path d="M105.8264,18.7646h-1.5625c0,0.2573,0.0576,0.4551,0.1738,0.5928c0.1162,0.1382,0.2852,0.2075,0.5078,0.2075
		c0.1318,0,0.2432-0.0205,0.332-0.0615c0.0898-0.0405,0.1816-0.1079,0.2754-0.2021l0.2305,0.2021
		c-0.125,0.1255-0.251,0.2168-0.376,0.2729c-0.126,0.0566-0.2822,0.085-0.4707,0.085c-0.3203,0-0.5693-0.0981-0.7461-0.2944
		c-0.1777-0.1958-0.2656-0.4932-0.2656-0.8916c0-0.3735,0.084-0.6646,0.2539-0.873c0.1689-0.2085,0.4014-0.313,0.6963-0.313
		c0.2979,0,0.5312,0.0996,0.6992,0.2988s0.252,0.4746,0.252,0.8262V18.7646z M105.4924,18.5102
		c-0.0127-0.1787-0.0381-0.3071-0.0762-0.3857c-0.1094-0.2319-0.29-0.3481-0.541-0.3481s-0.4316,0.1162-0.541,0.3481
		c-0.0381,0.0815-0.0615,0.2104-0.0703,0.3857H105.4924z"/>
	<path d="M108.3157,18.6753c0,0.4233-0.0947,0.731-0.2822,0.9224c-0.1699,0.1758-0.3906,0.2637-0.6641,0.2637
		c-0.2725,0-0.4941-0.0879-0.6631-0.2637c-0.1885-0.1914-0.2832-0.499-0.2832-0.9224c0-0.4268,0.0947-0.7344,0.2832-0.9224
		c0.1689-0.1758,0.3906-0.2637,0.6631-0.2637c0.2734,0,0.4941,0.0879,0.6641,0.2637
		C108.221,17.9409,108.3157,18.2485,108.3157,18.6753z M107.9768,18.6753c0-0.3545-0.0615-0.5933-0.1836-0.7153
		c-0.1133-0.1133-0.2539-0.1694-0.4238-0.1694c-0.166,0-0.3057,0.0562-0.4189,0.1694c-0.125,0.1255-0.1885,0.3638-0.1885,0.7153
		s0.0635,0.5898,0.1885,0.7153c0.1133,0.1128,0.2529,0.1694,0.4189,0.1694c0.1699,0,0.3105-0.0566,0.4238-0.1694
		C107.9153,19.2651,107.9768,19.0268,107.9768,18.6753z"/>
	<path d="M110.5852,17.7056l-0.25,0.2544c-0.0625-0.063-0.123-0.1069-0.1807-0.1318c-0.0586-0.0254-0.1318-0.0376-0.2197-0.0376
		c-0.166,0-0.2998,0.0586-0.4023,0.1763c-0.1016,0.1177-0.1523,0.2661-0.1523,0.4448v1.4214h-0.3389v-2.3154h0.3389v0.2822
		c0.0625-0.0972,0.1523-0.1733,0.2705-0.228c0.1172-0.0552,0.2441-0.0825,0.3789-0.0825
		C110.2551,17.4892,110.4407,17.5615,110.5852,17.7056z"/>
	<path d="M112.7971,18.7646h-1.5625c0,0.2573,0.0576,0.4551,0.1738,0.5928c0.1162,0.1382,0.2852,0.2075,0.5078,0.2075
		c0.1318,0,0.2432-0.0205,0.332-0.0615c0.0898-0.0405,0.1816-0.1079,0.2754-0.2021l0.2305,0.2021
		c-0.125,0.1255-0.251,0.2168-0.376,0.2729c-0.126,0.0566-0.2822,0.085-0.4707,0.085c-0.3203,0-0.5693-0.0981-0.7461-0.2944
		c-0.1777-0.1958-0.2656-0.4932-0.2656-0.8916c0-0.3735,0.084-0.6646,0.2539-0.873c0.1689-0.2085,0.4014-0.313,0.6963-0.313
		c0.2979,0,0.5312,0.0996,0.6992,0.2988s0.252,0.4746,0.252,0.8262V18.7646z M112.4632,18.5102
		c-0.0127-0.1787-0.0381-0.3071-0.0762-0.3857c-0.1094-0.2319-0.29-0.3481-0.541-0.3481s-0.4316,0.1162-0.541,0.3481
		c-0.0381,0.0815-0.0615,0.2104-0.0703,0.3857H112.4632z"/>
	<path d="M114.4065,19.833h-0.2402c-0.1914,0-0.3379-0.0581-0.4404-0.1743c-0.1016-0.1157-0.1523-0.2651-0.1523-0.4468v-1.4355
		h-0.292v-0.2588h0.292v-0.7109h0.3389v0.7109h0.4941v0.2588h-0.4941v1.4258c0,0.2261,0.1045,0.3389,0.3145,0.3389h0.1797V19.833z"
		/>
	<path d="M115.4417,16.8584h-0.3818V16.477h0.3818V16.8584z M115.4182,19.833h-0.3389v-2.3154h0.3389V19.833z"/>
	<path d="M117.926,19.5176c-0.1191,0.1289-0.2354,0.2183-0.3486,0.2686c-0.1123,0.0498-0.251,0.0752-0.4141,0.0752
		c-0.3037,0-0.5508-0.1021-0.7412-0.3062c-0.1895-0.2036-0.2842-0.4971-0.2842-0.8799s0.0947-0.6763,0.2842-0.8804
		c0.1904-0.2036,0.4375-0.3057,0.7412-0.3057c0.1631,0,0.3018,0.0249,0.4141,0.0752c0.1133,0.0503,0.2295,0.1396,0.3486,0.2681
		l-0.2305,0.2168c-0.0879-0.0972-0.1709-0.165-0.25-0.2026c-0.0781-0.0376-0.1719-0.0562-0.2822-0.0562
		c-0.2354,0-0.4141,0.0879-0.5361,0.2632c-0.1006,0.1416-0.1504,0.3486-0.1504,0.6216s0.0498,0.48,0.1504,0.6211
		c0.1221,0.1758,0.3008,0.2637,0.5361,0.2637c0.1104,0,0.2041-0.0195,0.2822-0.0591c0.0791-0.0391,0.1621-0.1074,0.25-0.2046
		L117.926,19.5176z"/>
	<path d="M120.2229,19.833h-0.3389v-0.2212c-0.0908,0.0908-0.1865,0.1553-0.2871,0.1929c-0.0996,0.0376-0.2275,0.0566-0.3809,0.0566
		c-0.292,0-0.5098-0.0708-0.6543-0.2119c-0.1162-0.1128-0.1738-0.2695-0.1738-0.4707c0-0.207,0.0693-0.3701,0.209-0.4893
		s0.3379-0.1792,0.5957-0.1792h0.6914V18.289c0-0.1724-0.0459-0.3003-0.1387-0.3833s-0.2441-0.125-0.4541-0.125
		c-0.1445,0-0.2598,0.0205-0.3457,0.0615c-0.0869,0.0405-0.166,0.1099-0.2373,0.207l-0.2314-0.2119
		c0.0977-0.1318,0.209-0.2227,0.335-0.2729c0.125-0.0503,0.2871-0.0752,0.4844-0.0752c0.6182,0,0.9268,0.2573,0.9268,0.772V19.833z
		 M119.884,19.0141v-0.2495h-0.6445c-0.3486,0-0.5225,0.1362-0.5225,0.4097c0,0.2632,0.1787,0.395,0.5371,0.395
		c0.2285,0,0.3994-0.0518,0.5127-0.1553C119.845,19.3389,119.884,19.2056,119.884,19.0141z"/>
</g>
<g>
	<path d="M122.5715,19.833h-0.2441c-0.1953,0-0.3418-0.0566-0.4404-0.1694s-0.1484-0.2617-0.1484-0.4473v-2.7344h0.3389v2.7202
		c0,0.1162,0.0234,0.2017,0.0703,0.2568c0.0479,0.0547,0.1279,0.082,0.2402,0.082h0.1836V19.833z"/>
</g>
<g>
	<path d="M126.6204,19.833h-0.3818l-0.2676-0.7578h-1.4639l-0.2686,0.7578h-0.3809l1.2334-3.3511h0.3008L126.6204,19.833z
		 M125.8674,18.7646l-0.6211-1.7695l-0.6309,1.7695H125.8674z"/>
	<path d="M128.7717,19.1553c0,0.2197-0.0859,0.3921-0.2568,0.5176s-0.3994,0.1885-0.6846,0.1885
		c-0.4082,0-0.7246-0.1113-0.9512-0.3345l0.2266-0.2256c0.1689,0.1787,0.4092,0.2681,0.7197,0.2681
		c0.1943,0,0.3457-0.0342,0.4541-0.1035c0.1084-0.0688,0.1621-0.1709,0.1621-0.3057c0-0.2041-0.1279-0.3169-0.3857-0.3389
		l-0.3809-0.0332c-0.4619-0.0376-0.6924-0.2446-0.6924-0.6211c0-0.207,0.0791-0.3721,0.2354-0.4941
		c0.1572-0.1226,0.3623-0.1836,0.6172-0.1836c0.3477,0,0.626,0.083,0.833,0.2495l-0.2217,0.2212
		c-0.1602-0.1226-0.3652-0.1836-0.6162-0.1836c-0.167,0-0.2939,0.0327-0.3838,0.0986s-0.1338,0.1602-0.1338,0.2827
		c0,0.1035,0.0322,0.1816,0.0986,0.2349c0.0654,0.0537,0.1709,0.0879,0.3154,0.104l0.3623,0.0327
		c0.2197,0.022,0.3877,0.0801,0.5059,0.1743C128.7122,18.7973,128.7717,18.9482,128.7717,19.1553z"/>
</g>
<g>
	<path d="M130.6956,19.833h-0.2402c-0.1914,0-0.3379-0.0581-0.4404-0.1743c-0.1016-0.1157-0.1523-0.2651-0.1523-0.4468v-1.4355
		h-0.292v-0.2588h0.292v-0.7109h0.3389v0.7109h0.4941v0.2588h-0.4941v1.4258c0,0.2261,0.1045,0.3389,0.3145,0.3389h0.1797V19.833z"
		/>
	<path d="M132.9124,17.7056l-0.25,0.2544c-0.0625-0.063-0.123-0.1069-0.1807-0.1318c-0.0586-0.0254-0.1318-0.0376-0.2197-0.0376
		c-0.166,0-0.2998,0.0586-0.4023,0.1763c-0.1016,0.1177-0.1523,0.2661-0.1523,0.4448v1.4214h-0.3389v-2.3154h0.3389v0.2822
		c0.0625-0.0972,0.1523-0.1733,0.2705-0.228c0.1172-0.0552,0.2441-0.0825,0.3789-0.0825
		C132.5823,17.4892,132.7678,17.5615,132.9124,17.7056z"/>
</g>
<g>
	<path d="M135.2991,18.6753c0,0.4233-0.0947,0.731-0.2822,0.9224c-0.1699,0.1758-0.3906,0.2637-0.6641,0.2637
		c-0.2725,0-0.4941-0.0879-0.6631-0.2637c-0.1885-0.1914-0.2832-0.499-0.2832-0.9224c0-0.4268,0.0947-0.7344,0.2832-0.9224
		c0.1689-0.1758,0.3906-0.2637,0.6631-0.2637c0.2734,0,0.4941,0.0879,0.6641,0.2637
		C135.2044,17.9409,135.2991,18.2485,135.2991,18.6753z M134.9602,18.6753c0-0.3545-0.0615-0.5933-0.1836-0.7153
		c-0.1133-0.1133-0.2539-0.1694-0.4238-0.1694c-0.166,0-0.3057,0.0562-0.4189,0.1694c-0.125,0.1255-0.1885,0.3638-0.1885,0.7153
		s0.0635,0.5898,0.1885,0.7153c0.1133,0.1128,0.2529,0.1694,0.4189,0.1694c0.1699,0,0.3105-0.0566,0.4238-0.1694
		C134.8987,19.2651,134.9602,19.0268,134.9602,18.6753z"/>
	<path d="M137.8635,18.6753c0,0.4644-0.0938,0.792-0.2822,0.9834c-0.1348,0.1353-0.3232,0.2026-0.5645,0.2026
		c-0.2764,0-0.4941-0.1006-0.6543-0.3013v1.3086h-0.3389v-3.3511h0.3389v0.2729c0.1602-0.2007,0.3779-0.3013,0.6543-0.3013
		c0.2412,0,0.4297,0.0674,0.5645,0.2021C137.7698,17.8799,137.8635,18.2075,137.8635,18.6753z M137.5032,19.0093
		c0.0146-0.0942,0.0215-0.2056,0.0215-0.334c0-0.1289-0.0068-0.2402-0.0215-0.3345c-0.0137-0.0938-0.0391-0.1855-0.0771-0.2749
		c-0.0381-0.0898-0.0977-0.1577-0.1787-0.2051c-0.082-0.0469-0.1826-0.0703-0.3018-0.0703c-0.0967,0-0.1816,0.0161-0.2539,0.0493
		c-0.0723,0.0327-0.1289,0.0762-0.1719,0.1294c-0.042,0.0532-0.0752,0.1206-0.0986,0.2021
		c-0.0234,0.082-0.0391,0.1611-0.0469,0.2378c-0.0078,0.0771-0.0117,0.1655-0.0117,0.2661s0.0039,0.189,0.0117,0.2656
		c0.0078,0.0771,0.0234,0.1562,0.0469,0.2378s0.0566,0.1489,0.0986,0.2026c0.043,0.0532,0.0996,0.0962,0.1719,0.1294
		c0.0723,0.0327,0.1572,0.0493,0.2539,0.0493c0.1191,0,0.2197-0.0234,0.3018-0.0708c0.0811-0.0469,0.1406-0.1152,0.1787-0.2046
		S137.4895,19.1035,137.5032,19.0093z"/>
	<path d="M140.4104,19.833h-0.3389v-1.4307c0-0.2007-0.0498-0.353-0.1484-0.4565s-0.2373-0.1553-0.416-0.1553
		c-0.1826,0-0.3242,0.0518-0.4268,0.1553c-0.1016,0.1035-0.1523,0.2559-0.1523,0.4565v1.4307h-0.3389v-3.3511h0.3389v1.2896
		c0.1689-0.188,0.3857-0.2822,0.6494-0.2822c0.2598,0,0.4639,0.0767,0.6113,0.2305s0.2217,0.3623,0.2217,0.626V19.833z"/>
</g>
<g>
	<path d="M143.1155,17.5176l-1.0537,2.8755c-0.0439,0.1226-0.0986,0.2134-0.165,0.2729c-0.1094,0.1064-0.2607,0.1602-0.4521,0.1602
		h-0.1455v-0.3013h0.1035c0.1133,0,0.1953-0.0205,0.2471-0.061c0.0518-0.041,0.0967-0.1162,0.1338-0.2261l0.165-0.4517
		l-0.833-2.2686h0.3672l0.6357,1.8589l0.6299-1.8589H143.1155z"/>
	<path d="M145.262,19.1553c0,0.2197-0.0859,0.3921-0.2568,0.5176s-0.3994,0.1885-0.6846,0.1885
		c-0.4082,0-0.7246-0.1113-0.9512-0.3345l0.2266-0.2256c0.1689,0.1787,0.4092,0.2681,0.7197,0.2681
		c0.1943,0,0.3457-0.0342,0.4541-0.1035c0.1084-0.0688,0.1621-0.1709,0.1621-0.3057c0-0.2041-0.1279-0.3169-0.3857-0.3389
		l-0.3809-0.0332c-0.4619-0.0376-0.6924-0.2446-0.6924-0.6211c0-0.207,0.0791-0.3721,0.2354-0.4941
		c0.1572-0.1226,0.3623-0.1836,0.6172-0.1836c0.3477,0,0.626,0.083,0.833,0.2495l-0.2217,0.2212
		c-0.1602-0.1226-0.3652-0.1836-0.6162-0.1836c-0.167,0-0.2939,0.0327-0.3838,0.0986s-0.1338,0.1602-0.1338,0.2827
		c0,0.1035,0.0322,0.1816,0.0986,0.2349c0.0654,0.0537,0.1709,0.0879,0.3154,0.104l0.3623,0.0327
		c0.2197,0.022,0.3877,0.0801,0.5059,0.1743C145.2024,18.7973,145.262,18.9482,145.262,19.1553z"/>
</g>
<g>
	<path d="M146.4954,16.8584h-0.3818V16.477h0.3818V16.8584z M146.4719,19.833h-0.3389v-2.3154h0.3389V19.833z"/>
	<path d="M148.9798,19.5176c-0.1191,0.1289-0.2354,0.2183-0.3486,0.2686c-0.1123,0.0498-0.251,0.0752-0.4141,0.0752
		c-0.3037,0-0.5508-0.1021-0.7412-0.3062c-0.1895-0.2036-0.2842-0.4971-0.2842-0.8799s0.0947-0.6763,0.2842-0.8804
		c0.1904-0.2036,0.4375-0.3057,0.7412-0.3057c0.1631,0,0.3018,0.0249,0.4141,0.0752c0.1133,0.0503,0.2295,0.1396,0.3486,0.2681
		l-0.2305,0.2168c-0.0879-0.0972-0.1709-0.165-0.25-0.2026c-0.0781-0.0376-0.1719-0.0562-0.2822-0.0562
		c-0.2354,0-0.4141,0.0879-0.5361,0.2632c-0.1006,0.1416-0.1504,0.3486-0.1504,0.6216s0.0498,0.48,0.1504,0.6211
		c0.1221,0.1758,0.3008,0.2637,0.5361,0.2637c0.1104,0,0.2041-0.0195,0.2822-0.0591c0.0791-0.0391,0.1621-0.1074,0.25-0.2046
		L148.9798,19.5176z"/>
</g>
<g>
	<path d="M151.5462,19.1553c0,0.2197-0.0859,0.3921-0.2568,0.5176s-0.3994,0.1885-0.6846,0.1885
		c-0.4082,0-0.7246-0.1113-0.9512-0.3345l0.2266-0.2256c0.1689,0.1787,0.4092,0.2681,0.7197,0.2681
		c0.1943,0,0.3457-0.0342,0.4541-0.1035c0.1084-0.0688,0.1621-0.1709,0.1621-0.3057c0-0.2041-0.1279-0.3169-0.3857-0.3389
		l-0.3809-0.0332c-0.4619-0.0376-0.6924-0.2446-0.6924-0.6211c0-0.207,0.0791-0.3721,0.2354-0.4941
		c0.1572-0.1226,0.3623-0.1836,0.6172-0.1836c0.3477,0,0.626,0.083,0.833,0.2495l-0.2217,0.2212
		c-0.1602-0.1226-0.3652-0.1836-0.6162-0.1836c-0.167,0-0.2939,0.0327-0.3838,0.0986s-0.1338,0.1602-0.1338,0.2827
		c0,0.1035,0.0322,0.1816,0.0986,0.2349c0.0654,0.0537,0.1709,0.0879,0.3154,0.104l0.3623,0.0327
		c0.2197,0.022,0.3877,0.0801,0.5059,0.1743C151.4866,18.7973,151.5462,18.9482,151.5462,19.1553z"/>
</g>
<path d="M59.5911,20.226c-1.481,0-2.696-0.531-3.645-1.48c-1.368-1.368-1.329-3.057-1.329-5.392s-0.039-4.024,1.329-5.392
	c0.949-0.948,2.164-1.48,3.645-1.48c2.524,0,4.499,1.442,4.974,4.271h-2.678c-0.265-1.082-0.947-1.918-2.277-1.918
	c-0.721,0-1.31,0.266-1.689,0.703c-0.514,0.57-0.666,1.215-0.666,3.816c0,2.601,0.152,3.247,0.666,3.815
	c0.379,0.438,0.968,0.703,1.689,0.703c1.33,0,2.012-0.835,2.277-1.917h2.678C64.0901,18.783,62.0961,20.226,59.5911,20.226"/>
<rect x="66.4263" y="6.5962" width="2.64" height="13.517"/>
<polygon points="77.0042,8.9496 77.0042,20.1126 74.3652,20.1126 74.3652,8.9496 70.8342,8.9496 70.8342,6.5956 80.5342,6.5956 
	80.5342,8.9496 "/>
<path d="M85.8112,10.5827l-1.71,4.916h3.361L85.8112,10.5827z M88.9602,20.1127l-0.797-2.393h-4.803l-0.817,2.393h-2.753
	l4.918-13.517h2.069l4.935,13.517H88.9602z"/>
</svg>
