<?xml version="1.0" encoding="utf-8"?>
<!-- Generator: Adobe Illustrator 27.0.1, SVG Export Plug-In . SVG Version: 6.00 Build 0)  -->
<svg version="1.1" id="Layer_1" xmlns="http://www.w3.org/2000/svg" xmlns:xlink="http://www.w3.org/1999/xlink" x="0px" y="0px"
	 viewBox="0 0 154.2561035 41.7645988" style="enable-background:new 0 0 154.2561035 41.7645988;" xml:space="preserve">
<style type="text/css">
	.st0{fill:#FFFFFF;}
	.st1{fill:#FFFFFF;stroke:#FFFFFF;stroke-width:0.501;stroke-miterlimit:10;}
</style>
<path class="st0" d="M21.3568001,22.0872993c-0.0020008,0.0060005,0.0049992-0.0039997,0.0139999-0.0100002l0.0060005-0.0079994
	L21.3568001,22.0872993z"/>
<path class="st0" d="M10.2650003,31.5170002c-0.4069996-1.6410007,0.0159998-3.6459999,1.0500002-5.6310005
	c0.5200005-0.9939995,1.1949997-1.9899998,1.9899998-2.9330006c0.4020004-0.4689999,0.8310003-0.9300003,1.2869997-1.3700008
	l0.3529997-0.3339996l0.3409996-0.3040009c0.2270002-0.2029991,3.2390003-2.7719994,6.7789993-4.2950001
	c-0.9500008,0.5559998-1.8990002,1.1889992-2.8330002,1.8630009c-0.9349995,0.6700001-1.8689995,1.4120007-2.730999,2.1800003
	c-0.2159996,0.1849995-0.4370003,0.3899994-0.6540003,0.5990009l-0.3319998,0.3110008l-0.2939997,0.2929993
	c-0.3999996,0.4060001-0.7779999,0.8320007-1.1210003,1.2639999c-0.6899996,0.8649998-1.2589998,1.7649994-1.6820002,2.6620007
	c-0.8529997,1.7870007-1.1199999,3.5639992-0.6689997,4.927c0.4530001,1.3660011,1.5970001,2.3619995,3.118,2.8380013
	c0.7580004,0.2350006,1.6190004,0.3419991,2.5299997,0.3089981c0.4610004-0.0219994,0.9179993-0.0699997,1.3959999-0.1580009
	c0.4909992-0.0919991,0.9729996-0.2089996,1.4669991-0.3639984c1.9669991-0.598999,3.9470005-1.598999,5.4829998-2.7789993
	c0.2049999-0.1480007,0.3500004-0.2789993,0.5259991-0.4179993l0.2999992-0.2639999l0.1520004-0.132l0.0100002-0.0119991
	c-0.0039997,0.0060005-0.0130005,0.0119991-0.0100002,0.0079994l0.0119991-0.0119991l0.0060005-0.0039997
	c0.0060005-0.0060005,0,0,0,0l0.0130005-0.0119991l0.0610008-0.0599995
	c0.3400002-0.3169994,0.6389999-0.6350002,0.9120007-0.9489994c0.5400009-0.6350002,0.9220009-1.2560005,1.1469994-1.7989998
	c0.3859997-0.9139996,0.1720009-1.4239998,0.1569996-1.4669991c-0.1520004-0.3729992-0.7730007-0.9139996-1.3150005-0.1149998
	c-0.1000004,0.2049999-0.2339993,0.4139996-0.3810005,0.6270008c-0.0400009,0.0580006-0.0699997,0.1030006-0.0979996,0.1350002
	c0,0.0030003-0.0020008,0.0049992-0.0060005,0.0130005c-0.4850006,0.6369991-1.1620007,1.2810001-1.9850006,1.8360004
	c-0.5839996,0.3910007-1.1760006,0.6949997-1.7479992,0.9179993c-0.6229992,0.2950001-1.4060001,0.6110001-2.3220005,0.8129997
	c-0.6410007,0.1459999-1.3369999,0.2220001-2.0139999,0.1709995c-0.6760006-0.0459995-1.3360004-0.2320004-1.8470001-0.6030006
	c-0.257-0.1860008-0.4740009-0.4139996-0.6359997-0.684c-0.0830002-0.1380005-0.1490002-0.2810001-0.2080002-0.4370003
	l-0.0219994-0.0669994l-0.0049992-0.0170002l-0.0060005-0.0200005l-0.0119991-0.0480003l-0.0209999-0.0979996
	c-0.0160007-0.0669994-0.0319996-0.1149998-0.0470009-0.2269993c-0.0569992-0.3899994-0.0450001-0.75,0.0200005-1.1639996
	c0.0809994-0.4060001,0.1940002-0.8419991,0.3999996-1.2830009c0.3899994-0.8910007,1.0249996-1.8110008,1.8029995-2.6739998
	c0.3920002-0.4309998,0.8139992-0.8589993,1.2740002-1.269001l0.0849991-0.0750008l0.0459995-0.0389996l0.0720005-0.0680008
	l0.1569996-0.1289997l0.3190002-0.2689991c0.2660007-0.2000008,0.5440006-0.434,0.7989998-0.6119995
	c2.0830002-1.5060005,4.4880009-2.6149998,6.8449993-3.2520008c0.5919991-0.1580009,1.1900005-0.2770004,1.7579994-0.3610001
	c0.5879993-0.0860004,1.1660004-0.1270008,1.7059994-0.1210003l1.1729984-7.4750004l0.5629997-3.618l-3.8989925,2.187995
	L23.9290009,0l-5.4279995,7.4499998l-3.8940001-2.1879997l1.9870005,12.7200003l-6.6820002-5.7530003l-0.3190002,0.6160002
	l-1.8080001,3.4840002l-6.5170002-1.1459999l2.517,6.2320004L0,24.5330009L10.2650003,31.5170002z"/>
<path class="st0" d="M47.9827003,24.5326004l-3.7879982-3.1170006l2.5219994-6.2369995l-6.5149994,1.151001l-2.1310005-4.1009998
	l-4.9510002,4.2609997c0.5130005,0.0919991,0.9980011,0.2150002,1.4440002,0.3869991
	c1.6980019,0.6599998,2.887001,1.8670006,3.3209991,3.5020008c0.4249992,1.6380005,0.0239983,3.6580009-0.9970016,5.6580009
	c-0.512001,1-1.1780014,2-1.9729996,2.9489994c-0.3979988,0.4750004-0.8269997,0.9360008-1.2820015,1.3829994l-0.3569984,0.3339996
	l-0.3400002,0.3099995c-0.2290001,0.2019997-3.7730007,3.1349983-6.8069992,4.3250008
	c0.9559994-0.5569992,1.9109993-1.1940002,2.848999-1.8709984c0.9400005-0.6739998,1.8780003-1.4199982,2.7390003-2.1940002
	c0.2169991-0.1849995,0.4359989-0.3980007,0.6600018-0.6049995l0.3279991-0.3129997l0.2960014-0.2929993
	c0.3969994-0.4120007,0.7680016-0.8379993,1.1110001-1.2730007c0.6839981-0.8710003,1.2529984-1.7770004,1.6669998-2.6779995
	c0.8409996-1.7989998,1.0890007-3.5720005,0.6199989-4.9430008c-0.4630013-1.3710003-1.6069984-2.3710003-3.1290016-2.8619995
	c-0.7610016-0.2439995-1.6200008-0.3570004-2.5330009-0.3320007c-0.4619999,0.0119991-0.9309998,0.0650005-1.3999996,0.1529999
	c-0.493,0.0879993-0.9740009,0.2029991-1.4710007,0.3530006c-1.9759998,0.5879993-3.9640007,1.5919991-5.507,2.776001
	c-0.2059994,0.1480007-0.3479996,0.2810001-0.5249996,0.4160004l-0.3040009,0.2670002l-0.1529999,0.1310005
	c0.0259991-0.0189991,0.0079994-0.0039997-0.0060005,0.0079994l-0.0230007,0.0249996l-0.0650005,0.0650005
	c-0.3379993,0.3099995-0.6359997,0.6350002-0.9080009,0.9529991c-0.5380001,0.6369991-0.927,1.2579994-1.1429996,1.8050003
	c-0.118,0.2770004-0.1940002,0.552-0.2280006,0.7929993c-0.0529995,0.5230007,0.0289993,1.1110001,0.4529991,1.25
	c0.4699993,0.1709995,0.8390007-0.3950005,0.8390007-0.3950005s1.2989998-1.6930008,2.3740005-2.4200001
	c0.1599998-0.1070004,0.3139992-0.2029991,0.4699993-0.2970009c0.0119991-0.0079994,0.0209999-0.0109997,0.0310001-0.0189991
	c0.0550003-0.0370007,0.1790009-0.1119995,0.3190002-0.198c0.1389999-0.0839996,0.2870007-0.1620007,0.4519997-0.257
	c0.6720009-0.3640003,1.7119999-0.8770008,3.0009995-1.1700001c0.6389999-0.1469994,1.3339996-0.2290001,2.0139999-0.1860008
	c0.677,0.0429993,1.342001,0.2229996,1.8530006,0.5879993c0.2560005,0.184,0.4759998,0.4139996,0.6399994,0.6879997
	c0.0359993,0.0680008,0.073,0.1380005,0.1140003,0.2099991l0.0459995,0.1119995l0.0230007,0.0559998l0.0090008,0.0300007
	l0.0310001,0.0820007l0.0450001,0.1930008c0.0149994,0.0680008,0.0359993,0.1210003,0.0440006,0.2290001
	c0.0639992,0.3980007,0.0389996,0.7539997-0.0259991,1.1660004c-0.0820007,0.4099998-0.2049999,0.8379993-0.4139996,1.2849998
	c-0.3990002,0.8850002-1.0340004,1.7950001-1.816,2.657999c-0.3889999,0.4239998-0.8110008,0.8479996-1.2670002,1.2539997
	l-0.0839996,0.0739994l-0.0410004,0.0410004l-0.0790005,0.0650005l-0.1560001,0.1289997l-0.3180008,0.2670002
	c-0.2630005,0.2010002-0.5400009,0.434-0.7940006,0.6040001c-2.0750008,1.4999981-4.4589996,2.6070004-6.8050003,3.2499981
	c-0.5860004,0.1640015-1.1800003,0.2849998-1.7520008,0.3769989c-0.5809994,0.0839996-1.1620007,0.132-1.7029991,0.1279984
	c-1.0860004,0-2.0749998-0.1749992-2.9289999-0.4959984c-0.2440004-0.0909996-0.4750004-0.1990013-0.6969995-0.3139992
	l-0.5170002,3.0180016l-0.6940002,4.0439987l12.3360004-4.3279991l12.3040009,4.3279991l-1.4249992-8.3199997L37.8266983,31.4466
	L47.9827003,24.5326004z"/>
<path class="st0" d="M24.9836998,26.0501995c0,0.6189995-0.5009995,1.1210003-1.1219997,1.1210003
	c-0.6200008,0-1.1210003-0.5020008-1.1210003-1.1210003c0-0.6229992,0.5009995-1.125,1.1210003-1.125
	C24.4827003,24.9251995,24.9836998,25.4272003,24.9836998,26.0501995"/>
<line class="st1" x1="111.4134979" y1="23.2376995" x2="99.0045013" y2="23.2376995"/>
<rect x="55.0723" y="25.5562" class="st0" width="2.6389999" height="13.5160007"/>
<path class="st0" d="M64.8547974,39.1848984c-1.480999,0-2.6959991-0.5289993-3.644001-1.4799995
	c-1.3660011-1.3660011-1.3289986-3.0550003-1.3289986-5.3909988c0-2.3339996-0.0369987-4.0240002,1.3289986-5.3909988
	c0.9480019-0.9489994,2.1629982-1.4799995,3.644001-1.4799995c2.5240021,0,4.4990005,1.4430008,4.973999,4.269001h-2.677002
	c-0.2659988-1.0799999-0.947998-1.9160004-2.2770004-1.9160004c-0.7210007,0-1.3110008,0.2660007-1.6889992,0.7010002
	c-0.5139999,0.5709991-0.6660004,1.2150002-0.6660004,3.8170013c0,2.5999985,0.1520004,3.2480011,0.6660004,3.8139992
	c0.3779984,0.4379997,0.9679985,0.7029991,1.6889992,0.7029991c1.3290024,0,2.0110016-0.8339996,2.2770004-1.9169998h2.677002
	C69.3537979,37.7439003,67.3608017,39.1848984,64.8547974,39.1848984"/>
<path class="st0" d="M76.2664032,29.5426998l-1.7089996,4.9180012h3.3600006L76.2664032,29.5426998z M79.4184036,39.071701
	L78.6194,36.6807022h-4.802002l-0.8170013,2.3909988h-2.7519989l4.9169998-13.5159988h2.0670013l4.9380035,13.5159988H79.4184036z"
	/>
<polygon class="st0" points="87.5286026,27.9095001 87.5286026,39.0714989 84.8886032,39.0714989 84.8886032,27.9095001 
	81.3585968,27.9095001 81.3585968,25.5555 91.0606003,25.5555 91.0606003,27.9095001 "/>
<g>
	<path class="st0" d="M100.7297974,29.5659008h-2.0712967v-3.3516006h0.3583984v3.0312004h1.7128983V29.5659008z"/>
	<path class="st0" d="M101.694603,26.6098003l-0.4092026,0.3721008v-0.7675991h0.4092026V26.6098003z"/>
</g>
<g>
	<path class="st0" d="M102.4757996,26.5912991h-0.3817978v-0.3817997h0.3817978V26.5912991z M102.4524002,29.5659008h-0.3388977
		v-2.3153992h0.3388977V29.5659008z"/>
	<path class="st0" d="M105.1203995,29.5659008h-0.3388977V28.139101c0-0.2001991-0.0507965-0.3535004-0.1503983-0.4580002
		c-0.1006012-0.1054993-0.2401962-0.1581993-0.4188995-0.1581993s-0.3192978,0.0536995-0.4218979,0.1602001
		c-0.1016006,0.1063995-0.152298,0.2588005-0.152298,0.4561005v1.4267998h-0.3388977v-2.3153992h0.3388977v0.2539005
		c0.1631012-0.1884995,0.3788986-0.2821999,0.6493988-0.2821999c0.2509995,0,0.4481964,0.0723,0.5927963,0.2157993
		c0.160202,0.1571999,0.2401962,0.3721008,0.2401962,0.6455002V29.5659008z"/>
</g>
<g>
	<path class="st0" d="M107.7757034,28.8882008c0,0.2196999-0.0858994,0.3915997-0.2567978,0.5175991
		c-0.1708984,0.125-0.3993988,0.1884995-0.6846008,0.1884995c-0.4082031,0-0.7246017-0.1112995-0.9512024-0.3349991
		l0.2266006-0.2255993c0.1688995,0.1786995,0.4092026,0.2686005,0.7197037,0.2686005
		c0.1942978,0,0.3457031-0.0342007,0.4541016-0.1035004s0.1621017-0.1709003,0.1621017-0.3057003
		c0-0.2040997-0.1278992-0.3174-0.3856964-0.3388996l-0.3808975-0.0331993
		c-0.4618988-0.0380993-0.6923981-0.2451-0.6923981-0.6210995c0-0.2070007,0.0791016-0.3721008,0.2353973-0.4941006
		c0.1572037-0.1229992,0.3622971-0.1835995,0.6172028-0.1835995c0.347702,0,0.6259995,0.0830002,0.8330002,0.2490005
		l-0.2217026,0.2217007c-0.160202-0.1229992-0.3651962-0.1835995-0.6162033-0.1835995
		c-0.1669998,0-0.2938995,0.0321999-0.3837967,0.0986004c-0.089798,0.0653992-0.1337967,0.1602001-0.1337967,0.2821999
		c0,0.1035004,0.0322037,0.1816006,0.0986023,0.2353992c0.0653992,0.0536995,0.1708984,0.0879002,0.3153992,0.1035004
		l0.3622971,0.0331993c0.2197037,0.0214996,0.3877029,0.0800991,0.5058975,0.1737995
		C107.7161026,28.5298004,107.7757034,28.6811008,107.7757034,28.8882008z"/>
	<path class="st0" d="M109.3283997,29.5659008h-0.2401962c-0.1913986,0-0.3378983-0.0585995-0.4403992-0.1748009
		c-0.1016006-0.1152-0.152298-0.2646008-0.152298-0.4463005v-1.4354992h-0.2919998v-0.2588005h0.2919998v-0.7108994h0.3388977
		v0.7108994h0.4941025v0.2588005h-0.4941025v1.4258003c0,0.2255993,0.1044998,0.3388996,0.3144989,0.3388996h0.1797028v0.2919006
		H109.3283997z"/>
</g>
<g>
	<path class="st0" d="M110.5569,26.5912991h-0.3817978v-0.3817997H110.5569V26.5912991z M110.5335007,29.5659008h-0.3388977
		v-2.3153992h0.3388977V29.5659008z"/>
	<path class="st0" d="M112.2697983,29.5659008h-0.2401962c-0.1913986,0-0.3378983-0.0585995-0.4403992-0.1748009
		c-0.1016006-0.1152-0.152298-0.2646008-0.152298-0.4463005v-1.4354992h-0.2919998v-0.2588005h0.2919998v-0.7108994h0.3388977
		v0.7108994h0.4941025v0.2588005h-0.4941025v1.4258003c0,0.2255993,0.1044998,0.3388996,0.3144989,0.3388996h0.1797028v0.2919006
		H112.2697983z"/>
	<path class="st0" d="M114.7405014,29.5659008h-0.3339996v-0.2588005c-0.1669998,0.1914005-0.3848038,0.2870998-0.6542969,0.2870998
		c-0.2548981,0-0.4541016-0.0723-0.597702-0.2168007c-0.1572037-0.1532993-0.2353973-0.3701-0.2353973-0.6494007v-1.477499
		h0.3388977V28.6763c0,0.2012005,0.0487976,0.3535004,0.1474991,0.4589996
		c0.0996017,0.1044998,0.2382965,0.1571999,0.4169998,0.1571999s0.3202972-0.0527,0.4237976-0.1602001
		c0.1035004-0.1063995,0.1552963-0.2588005,0.1552963-0.4561005v-1.4258003h0.3388977
		C114.7404938,27.2503986,114.7404938,29.5659008,114.7405014,29.5659008z"/>
	<path class="st0" d="M116.4777985,29.5659008h-0.2401962c-0.1913986,0-0.3378983-0.0585995-0.4403992-0.1748009
		c-0.1016006-0.1152-0.152298-0.2646008-0.152298-0.4463005v-1.4354992h-0.2919998v-0.2588005h0.2919998v-0.7108994h0.3388977
		v0.7108994h0.4941025v0.2588005h-0.4941025v1.4258003c0,0.2255993,0.1044998,0.3388996,0.3144989,0.3388996h0.1797028v0.2919006
		H116.4777985z"/>
</g>
<g>
	<path class="st0" d="M120.7981033,28.5962009c-0.0596008,0.3104992-0.1933975,0.5547009-0.4003983,0.7313995
		c-0.2070007,0.1777-0.4608994,0.2665997-0.7627029,0.2665997c-0.3388977,0-0.6182022-0.1103992-0.8378983-0.3300991
		c-0.1474991-0.1474991-0.2393036-0.3085995-0.277298-0.4843998c-0.0371017-0.1758003-0.0566025-0.4727001-0.0566025-0.8896008
		s0.0195007-0.7138996,0.0566025-0.8896008c0.0381012-0.1758003,0.1298981-0.3369007,0.277298-0.4843998
		c0.2197037-0.2196999,0.4990005-0.3300991,0.8378983-0.3300991c0.3047028,0,0.5596008,0.0879002,0.7646027,0.2637005
		c0.2061005,0.1758003,0.3388977,0.4209003,0.3983994,0.7343998h-0.3672028
		c-0.0438995-0.2099991-0.1356964-0.3759995-0.2753983-0.4960995c-0.1396027-0.1210995-0.3134995-0.1816006-0.5205002-0.1816006
		c-0.2285004,0-0.4218979,0.0781002-0.5781021,0.2353992c-0.1006012,0.1035004-0.1650009,0.2294998-0.1933975,0.3789005
		s-0.0419998,0.4053001-0.0419998,0.7695007s0.0137024,0.6201,0.0419998,0.7695007s0.0927963,0.2754002,0.1933975,0.3789005
		c0.1561966,0.1571999,0.3496017,0.2353992,0.5781021,0.2353992c0.2070007,0,0.3817978-0.0604992,0.5253983-0.1816006
		c0.142601-0.1201,0.2353973-0.2861004,0.2792969-0.4960995h0.3585052V28.5962009z"/>
</g>
<g>
	<path class="st0" d="M123.2776031,29.5659008h-0.3388977v-0.2217007c-0.0907974,0.0907993-0.1865005,0.1553001-0.2871017,0.1933994
		c-0.0996017,0.0370998-0.2275009,0.0566006-0.3808975,0.0566006c-0.2919998,0-0.5098038-0.0713005-0.6542969-0.2119007
		c-0.1162033-0.1133003-0.1737976-0.2695007-0.1737976-0.4706993c0-0.2070007,0.0692978-0.3701,0.2089996-0.4892998
		s0.3378983-0.1797009,0.5957031-0.1797009h0.6913986v-0.2206001c0-0.1728992-0.0458984-0.3008003-0.1387024-0.3838005
		s-0.2441025-0.125-0.4541016-0.125c-0.1445007,0-0.2598038,0.0205002-0.3457031,0.0615005
		c-0.0868988,0.0410004-0.1660004,0.1103992-0.2372971,0.2070007l-0.2313995-0.2119007
		c0.097702-0.1317997,0.2089996-0.2227001,0.3349991-0.2724991c0.125-0.0508003,0.2871017-0.0751991,0.4843979-0.0751991
		c0.6182022,0,0.9268036,0.2567997,0.9268036,0.7714996v1.5723H123.2776031z M122.9386978,28.7465992v-0.2490005h-0.6445007
		c-0.3486023,0-0.5224991,0.1357002-0.5224991,0.4092007c0,0.2637005,0.1787033,0.3955002,0.5371017,0.3955002
		c0.2285004,0,0.3993988-0.0517998,0.5127029-0.1553001C122.8996964,29.0718002,122.9386978,28.9379997,122.9386978,28.7465992z"/>
	<path class="st0" d="M125.9231033,29.5659008h-0.3388977V28.139101c0-0.2001991-0.0507965-0.3535004-0.1503983-0.4580002
		c-0.1006012-0.1054993-0.2401962-0.1581993-0.4188995-0.1581993s-0.3192978,0.0536995-0.4218979,0.1602001
		c-0.1016006,0.1063995-0.152298,0.2588005-0.152298,0.4561005v1.4267998h-0.3388977v-2.3153992h0.3388977v0.2539005
		c0.1631012-0.1884995,0.3788986-0.2821999,0.6493988-0.2821999c0.2509995,0,0.4481964,0.0723,0.5927963,0.2157993
		c0.160202,0.1571999,0.2401962,0.3721008,0.2401962,0.6455002V29.5659008z"/>
	<path class="st0" d="M128.3977051,29.5659008h-0.3388977v-0.2217007c-0.0907974,0.0907993-0.1865005,0.1553001-0.2871017,0.1933994
		c-0.0996017,0.0370998-0.2275009,0.0566006-0.3808975,0.0566006c-0.2919998,0-0.5098038-0.0713005-0.6542969-0.2119007
		c-0.1162033-0.1133003-0.1737976-0.2695007-0.1737976-0.4706993c0-0.2070007,0.0692978-0.3701,0.2089996-0.4892998
		s0.3378983-0.1797009,0.5957031-0.1797009h0.6914062v-0.2206001c0-0.1728992-0.0458984-0.3008003-0.1387024-0.3838005
		s-0.2441025-0.125-0.4541016-0.125c-0.1445007,0-0.2598038,0.0205002-0.3457031,0.0615005
		c-0.0868988,0.0410004-0.1660004,0.1103992-0.2372971,0.2070007l-0.2313995-0.2119007
		c0.097702-0.1317997,0.2089996-0.2227001,0.3349991-0.2724991c0.125-0.0508003,0.2871017-0.0751991,0.4843979-0.0751991
		c0.6182022,0,0.926796,0.2567997,0.926796,0.7714996v1.5723H128.3977051z M128.0588989,28.7465992v-0.2490005h-0.6445007
		c-0.3486023,0-0.5224991,0.1357002-0.5224991,0.4092007c0,0.2637005,0.1787033,0.3955002,0.5371017,0.3955002
		c0.2285004,0,0.3993988-0.0517998,0.5127029-0.1553001C128.0198059,29.0718002,128.0588989,28.9379997,128.0588989,28.7465992z"/>
	<path class="st0" d="M130.9396973,29.5659008h-0.3339996v-0.2782993c-0.0917969,0.1161995-0.1885071,0.1963005-0.2920074,0.2402
		s-0.2256012,0.0664005-0.3672028,0.0664005c-0.2422028,0-0.4297028-0.0674-0.5644989-0.2031002
		c-0.1885071-0.1914005-0.2832031-0.5186005-0.2832031-0.9834003c0-0.4678001,0.094696-0.7949009,0.2832031-0.9834003
		c0.1347961-0.1348,0.3222961-0.2021008,0.5644989-0.2021008c0.1416016,0,0.2626953,0.0205002,0.3643036,0.0634995
		c0.1024933,0.0419998,0.1992035,0.1201,0.2899933,0.2324009v-1.3036995h0.3388977v3.3514996H130.9396973z M130.5794067,28.7416992
		c0.0146027-0.0937996,0.0214996-0.2050991,0.0214996-0.3339996s-0.0068054-0.2402-0.0214996-0.3339996
		c-0.0137024-0.0937996-0.0399933-0.1854992-0.0771027-0.2754002c-0.0381012-0.0897999-0.097702-0.1571999-0.1786957-0.2050991
		c-0.0820007-0.0468998-0.1826019-0.0702991-0.3018036-0.0702991c-0.097702,0-0.1815948,0.0165997-0.2539062,0.0498009
		c-0.0722961,0.0321999-0.1298981,0.0762005-0.1719055,0.1289005c-0.0420074,0.0536995-0.0751953,0.1210995-0.0986023,0.2021008
		c-0.023407,0.0820007-0.0399933,0.1611004-0.0478973,0.2383003s-0.0117035,0.1650009-0.0117035,0.2656002
		s0.0039062,0.1895008,0.0117035,0.2656002c0.0077972,0.0771008,0.0243988,0.1562004,0.0478973,0.2383003
		c0.023407,0.0811005,0.0565948,0.1483994,0.0986023,0.2021008s0.0995941,0.0967007,0.1719055,0.1299
		c0.0722961,0.0321999,0.1562042,0.0487995,0.2539062,0.0487995c0.1190948,0,0.219696-0.0233994,0.3018036-0.0702991
		c0.0811005-0.0468998,0.1405945-0.1152,0.1786957-0.2050991C130.5393066,28.9281998,130.5657043,28.8363991,130.5794067,28.7416992
		z"/>
	<path class="st0" d="M132.149704,26.5912991h-0.3818054v-0.3817997h0.3818054V26.5912991z M132.1262054,29.5659008h-0.3388977
		v-2.3153992h0.3388977V29.5659008z"/>
	<path class="st0" d="M134.7472992,28.4974995h-1.5625c0,0.2567997,0.0576019,0.4550991,0.1737976,0.5928001
		s0.285202,0.2070007,0.5077972,0.2070007c0.1318054,0,0.2431946-0.0205002,0.3320007-0.0615005
		c0.089798-0.0400009,0.1815948-0.1074009,0.2754059-0.2021008l0.2304993,0.2021008
		c-0.125,0.1259995-0.2510071,0.2168007-0.3760071,0.2733994c-0.1260071,0.0566006-0.282196,0.0849991-0.4707031,0.0849991
		c-0.3202972,0-0.5693054-0.0986004-0.7460938-0.2949009c-0.1777039-0.1952991-0.2655945-0.4932003-0.2655945-0.8915997
		c0-0.3729992,0.0839996-0.6641006,0.2539062-0.8729992c0.1688995-0.2080002,0.4013977-0.3125,0.6963043-0.3125
		c0.2978973,0,0.5312042,0.0995998,0.6992035,0.2987995s0.2519989,0.4745998,0.2519989,0.8262005v0.150301H134.7472992z
		 M134.4132996,28.2427006c-0.0126953-0.1786995-0.0381012-0.3066006-0.0762024-0.3857002
		c-0.1094055-0.2313995-0.2899933-0.3477001-0.5410004-0.3477001s-0.4315948,0.1161995-0.5410004,0.3477001
		c-0.0381012,0.0820007-0.0614929,0.2108994-0.0702972,0.3857002H134.4132996z"/>
</g>
<g>
	<path class="st0" d="M137.7512054,29.5659008h-0.3388977V28.139101c0-0.2001991-0.0507965-0.3535004-0.1504059-0.4580002
		c-0.1006012-0.1054993-0.2402039-0.1581993-0.4188995-0.1581993s-0.3193054,0.0536995-0.4219055,0.1602001
		c-0.101593,0.1063995-0.152298,0.2588005-0.152298,0.4561005v1.4267998h-0.3388977v-2.3153992h0.3388977v0.2539005
		c0.1631012-0.1884995,0.3789062-0.2821999,0.6493988-0.2821999c0.2510071,0,0.4481964,0.0723,0.592804,0.2157993
		c0.160202,0.1571999,0.2402039,0.3721008,0.2402039,0.6455002V29.5659008z"/>
</g>
<g>
	<path class="st0" d="M100.3156967,34.7426987h-0.3339996v-0.2773018c-0.0917969,0.1161995-0.1884995,0.1963005-0.2919998,0.2402
		s-0.2256012,0.0653992-0.3672028,0.0653992c-0.2422028,0-0.4297028-0.0674019-0.5644989-0.2020988
		c-0.1884995-0.1913986-0.2832031-0.5195007-0.2832031-0.9833984c0-0.4678001,0.0947037-0.7958984,0.2832031-0.9844017
		c0.1348038-0.1348,0.3223038-0.2020988,0.5644989-0.2020988c0.1416016,0,0.2627029,0.0214996,0.3643036,0.0634995
		c0.1025009,0.0429993,0.1992035,0.1200981,0.2900009,0.2333984v-1.3036995h0.3388977V34.7426987z M99.9552994,33.9193993
		c0.0146027-0.0946999,0.0214996-0.2061005,0.0214996-0.3339996c0-0.1288986-0.0067978-0.2402-0.0214996-0.3349991
		c-0.0137024-0.0937996-0.0400009-0.1855011-0.0771027-0.2743988c-0.0381012-0.0898018-0.097702-0.1581993-0.1787033-0.205101
		c-0.0820007-0.0469017-0.1826019-0.0703011-0.3018036-0.0703011c-0.097702,0-0.1816025,0.0155983-0.2538986,0.0488014
		s-0.1298981,0.0761986-0.1718979,0.1299019c-0.0419998,0.0527-0.0752029,0.1200981-0.0986023,0.2020988
		s-0.0400009,0.1610985-0.0478973,0.2373009c-0.0077972,0.0770988-0.0117035,0.1660004-0.0117035,0.2666016
		s0.0038986,0.1884995,0.0117035,0.2655983s0.0243988,0.1562004,0.0478973,0.2373009
		c0.0233994,0.0820007,0.0566025,0.1493988,0.0986023,0.2030983c0.0419998,0.0527,0.0996017,0.0956993,0.1718979,0.1288986
		s0.1561966,0.0498009,0.2538986,0.0498009c0.1191025,0,0.2197037-0.0233994,0.3018036-0.0713005
		c0.0811005-0.0469017,0.1406021-0.1152,0.1787033-0.2041016C99.9152985,34.1049995,99.9417038,34.0131989,99.9552994,33.9193993z"
		/>
	<path class="st0" d="M101.5627975,31.7875996l-0.4092026,0.3710995v-0.7665997h0.4092026V31.7875996z"/>
</g>
<g>
	<path class="st0" d="M103.9719009,34.7426987h-0.3388977v-0.2206993c-0.0907974,0.0908012-0.1865005,0.1553001-0.2871017,0.1924019
		c-0.0996017,0.0381012-0.2275009,0.0565987-0.3808975,0.0565987c-0.2919998,0-0.5098038-0.0703011-0.6542969-0.2118988
		c-0.1162033-0.1123009-0.1737976-0.2695007-0.1737976-0.4706993c0-0.2070007,0.0692978-0.3700981,0.2089996-0.4892998
		s0.3378983-0.1786995,0.5957031-0.1786995h0.6913986v-0.2216988c0-0.1719017-0.0458984-0.2998009-0.1387024-0.3828011
		s-0.2441025-0.125-0.4541016-0.125c-0.1445007,0-0.2598038,0.0205002-0.3457031,0.0615005
		c-0.0868988,0.0400009-0.1660004,0.1094017-0.2372971,0.2070007l-0.2313995-0.2118988
		c0.097702-0.1318016,0.2089996-0.2226982,0.3349991-0.2733994c0.125-0.0498009,0.2871017-0.0751991,0.4843979-0.0751991
		c0.6182022,0,0.9268036,0.2578011,0.9268036,0.7724991v1.5712929H103.9719009z M103.6331024,33.9243011v-0.25h-0.6445007
		c-0.3486023,0-0.5224991,0.1366997-0.5224991,0.4101982c0,0.2626991,0.1787033,0.3945007,0.5371017,0.3945007
		c0.2285004,0,0.3993988-0.0517998,0.5127029-0.1553001C103.5940018,34.2485008,103.6331024,34.1156998,103.6331024,33.9243011z"/>
	<path class="st0" d="M106.4671021,34.0648994c0,0.2196999-0.0858994,0.392601-0.2567978,0.517601
		c-0.1708984,0.1259995-0.3993988,0.1884995-0.6846008,0.1884995c-0.4082031,0-0.7246017-0.1113014-0.9512024-0.3339996
		l0.2266006-0.2256012c0.1688995,0.1786995,0.4092026,0.267601,0.7197037,0.267601
		c0.1942978,0,0.3457031-0.0341988,0.4541016-0.1035004c0.1083984-0.0684013,0.1621017-0.1708984,0.1621017-0.3056984
		c0-0.2041016-0.1278992-0.3163986-0.3856964-0.3389015l-0.3808975-0.0331993
		c-0.4618988-0.0371017-0.6923981-0.2440987-0.6923981-0.6211014c0-0.2070007,0.0791016-0.3721008,0.2353973-0.4940987
		c0.1572037-0.1221008,0.3622971-0.1836014,0.6172028-0.1836014c0.347702,0,0.6259995,0.0830002,0.8330002,0.25
		l-0.2217026,0.2206993c-0.160202-0.1221008-0.3651962-0.1836014-0.6162033-0.1836014
		c-0.1669998,0-0.2938995,0.0331993-0.3837967,0.0985985c-0.089798,0.0663986-0.1337967,0.1601982-0.1337967,0.2831993
		c0,0.1035004,0.0322037,0.1815987,0.0986023,0.2344017c0.0653992,0.0536995,0.1708984,0.0878983,0.3153992,0.1044998
		l0.3622971,0.0321999c0.2197037,0.0224991,0.3877029,0.080101,0.5058975,0.1748009
		C106.4075012,33.7075005,106.4671021,33.8578987,106.4671021,34.0648994z"/>
	<path class="st0" d="M108.0197983,34.7426987h-0.2401962c-0.1913986,0-0.3378983-0.0575981-0.4403992-0.1738014
		c-0.1016006-0.1161995-0.152298-0.2655983-0.152298-0.4473v-1.4355965h-0.2919998v-0.2588005h0.2919998V31.716301h0.3388977
		v0.7108994h0.4941025v0.2588005h-0.4941025v1.4258003c0,0.2266006,0.1044998,0.3389015,0.3144989,0.3389015h0.1797028v0.291996
		H108.0197983z"/>
	<path class="st0" d="M110.2366028,32.6156998l-0.25,0.2538986c-0.0625-0.0625-0.1230011-0.1063995-0.1807022-0.1318016
		c-0.0586014-0.0253983-0.1317978-0.0371017-0.2197037-0.0371017c-0.1660004,0-0.2997971,0.0586014-0.402298,0.1758003
		c-0.1016006,0.1181984-0.152298,0.2666016-0.152298,0.4453011v1.4208984h-0.3388977v-2.3153992h0.3388977v0.2821999
		c0.0625-0.0966988,0.152298-0.1729012,0.2705002-0.2275009c0.1172028-0.0556984,0.2441025-0.0830002,0.3788986-0.0830002
		C109.9065018,32.3988991,110.0921021,32.471199,110.2366028,32.6156998z"/>
	<path class="st0" d="M112.4436035,33.5853996c0,0.4229012-0.0947037,0.7304993-0.2822037,0.9219017
		c-0.169899,0.1758003-0.3906021,0.2636986-0.6641006,0.2636986c-0.2724991,0-0.4941025-0.0878983-0.6631012-0.2636986
		c-0.1884995-0.1913986-0.2832031-0.4990005-0.2832031-0.9219017c0-0.4267998,0.0947037-0.7344017,0.2832031-0.9229012
		c0.1688995-0.1758003,0.3906021-0.2636986,0.6631012-0.2636986c0.2733994,0,0.4941025,0.0878983,0.6641006,0.2636986
		C112.3488998,32.8511009,112.4436035,33.158699,112.4436035,33.5853996z M112.1047974,33.5853996
		c0-0.3544998-0.0615005-0.5937996-0.1836014-0.7158012c-0.1132965-0.1133003-0.2538986-0.1688995-0.4237976-0.1688995
		c-0.1660004,0-0.3057022,0.0556984-0.4188995,0.1688995c-0.125,0.1259995-0.1884995,0.3642998-0.1884995,0.7158012
		s0.0634995,0.5898018,0.1884995,0.7148018c0.1132965,0.1133003,0.2528992,0.169899,0.4188995,0.169899
		c0.169899,0,0.3105011-0.0565987,0.4237976-0.169899C112.0431976,34.1753006,112.1047974,33.9370003,112.1047974,33.5853996z"/>
	<path class="st0" d="M115.0090027,33.5853996c0,0.4639015-0.0938034,0.7919998-0.2822037,0.9833984
		c-0.1348038,0.1348-0.3231964,0.2020988-0.5644989,0.2020988c-0.2763977,0-0.4941025-0.1006012-0.6542969-0.3008003v1.3086014
		h-0.3388977v-3.3516006h0.3388977v0.2733994c0.160202-0.2011986,0.3778992-0.3017998,0.6542969-0.3017998
		c0.2412033,0,0.4297028,0.0674019,0.5644989,0.2020988C114.9152985,32.7895012,115.0090027,33.1176987,115.0090027,33.5853996z
		 M114.6486969,33.9193993c0.0146027-0.0946999,0.0214996-0.2061005,0.0214996-0.3339996
		c0-0.1288986-0.0067978-0.2402-0.0214996-0.3349991c-0.0137024-0.0937996-0.0391006-0.1855011-0.0771027-0.2743988
		c-0.0381012-0.0898018-0.097702-0.1581993-0.1787033-0.205101c-0.0820007-0.0469017-0.1826019-0.0703011-0.3018036-0.0703011
		c-0.0967026,0-0.1816025,0.0155983-0.2538986,0.0488014s-0.1288986,0.0761986-0.1718979,0.1299019
		c-0.0419998,0.0527-0.0752029,0.1200981-0.0986023,0.2020988s-0.0391006,0.1610985-0.0468979,0.2373009
		c-0.0077972,0.0770988-0.0117035,0.1660004-0.0117035,0.2666016s0.0038986,0.1884995,0.0117035,0.2655983
		s0.0233994,0.1562004,0.0468979,0.2373009c0.0233994,0.0820007,0.0566025,0.1493988,0.0986023,0.2030983
		c0.0429993,0.0527,0.0996017,0.0956993,0.1718979,0.1288986s0.1572037,0.0498009,0.2538986,0.0498009
		c0.1191025,0,0.2197037-0.0233994,0.3018036-0.0713005c0.0811005-0.0469017,0.1406021-0.1152,0.1787033-0.2041016
		C114.6095963,34.1049995,114.6350021,34.0131989,114.6486969,33.9193993z"/>
	<path class="st0" d="M117.5549011,34.7426987h-0.3388977v-1.4306984c0-0.2001991-0.0497971-0.3525009-0.1483994-0.4561005
		s-0.2372971-0.1553001-0.4160004-0.1553001c-0.1826019,0-0.3242035,0.0517998-0.4268036,0.1553001
		c-0.1016006,0.1035004-0.152298,0.2559013-0.152298,0.4561005v1.4306984h-0.3388977v-3.3505993h0.3388977v1.2890987
		c0.1688995-0.1875,0.3856964-0.2821999,0.6493988-0.2821999c0.2598038,0,0.4638977,0.0770988,0.6112976,0.2304993
		c0.1474991,0.1543007,0.2217026,0.3623009,0.2217026,0.6259995V34.7426987z"/>
	<path class="st0" d="M120.007103,32.4272003l-1.0537033,2.8759995c-0.0438995,0.1221008-0.0986023,0.2128983-0.1650009,0.2724991
		c-0.1093979,0.1063995-0.2606964,0.1601982-0.4521027,0.1601982h-0.1455002v-0.3008957h0.1035004
		c0.1132965,0,0.1952972-0.0205002,0.2471008-0.0615005s0.0967026-0.1161995,0.1337967-0.2256012l0.1650009-0.4520988
		l-0.8330002-2.2686005h0.3672028l0.6356964,1.8594017l0.6298981-1.8594017H120.007103z"/>
	<path class="st0" d="M122.1536026,34.0648994c0,0.2196999-0.0858994,0.392601-0.2567978,0.517601
		c-0.1708984,0.1259995-0.3993988,0.1884995-0.6846008,0.1884995c-0.4082031,0-0.7246017-0.1113014-0.9512024-0.3339996
		l0.2266006-0.2256012c0.1688995,0.1786995,0.4092026,0.267601,0.7197037,0.267601
		c0.1942978,0,0.3457031-0.0341988,0.4541016-0.1035004c0.1083984-0.0684013,0.1621017-0.1708984,0.1621017-0.3056984
		c0-0.2041016-0.1278992-0.3163986-0.3856964-0.3389015l-0.3808975-0.0331993
		c-0.4618988-0.0371017-0.6923981-0.2440987-0.6923981-0.6211014c0-0.2070007,0.0791016-0.3721008,0.2353973-0.4940987
		c0.1572037-0.1221008,0.3622971-0.1836014,0.6172028-0.1836014c0.347702,0,0.6259995,0.0830002,0.8330002,0.25
		l-0.2217026,0.2206993c-0.160202-0.1221008-0.3651962-0.1836014-0.6162033-0.1836014
		c-0.1669998,0-0.2938995,0.0331993-0.3837967,0.0985985c-0.089798,0.0663986-0.1337967,0.1601982-0.1337967,0.2831993
		c0,0.1035004,0.0322037,0.1815987,0.0986023,0.2344017c0.0653992,0.0536995,0.1708984,0.0878983,0.3153992,0.1044998
		l0.3622971,0.0321999c0.2197037,0.0224991,0.3877029,0.080101,0.5058975,0.1748009
		C122.0940018,33.7075005,122.1536026,33.8578987,122.1536026,34.0648994z"/>
	<path class="st0" d="M123.1790009,31.7681007h-0.3817978v-0.3808994h0.3817978V31.7681007z M123.1555023,34.7426987h-0.3388977
		v-2.3153992h0.3388977V34.7426987z"/>
	<path class="st0" d="M125.7210007,35.778801h-0.3388977v-1.3086014c-0.160202,0.2001991-0.3778992,0.3008003-0.6542969,0.3008003
		c-0.2422028,0-0.4297028-0.0674019-0.5644989-0.2020988c-0.1884995-0.1913986-0.2832031-0.5195007-0.2832031-0.9833984
		c0-0.4678001,0.0947037-0.7958984,0.2832031-0.9844017c0.1348038-0.1348,0.3223038-0.2020988,0.5644989-0.2020988
		c0.2792969,0,0.4990005,0.1006012,0.6592026,0.3017998v-0.2733994h0.3339996
		C125.7210083,32.4274025,125.7210083,35.778801,125.7210007,35.778801z M125.3606033,33.9193993
		c0.0146027-0.0946999,0.0214996-0.2061005,0.0214996-0.3339996c0-0.1288986-0.0067978-0.2402-0.0214996-0.3349991
		c-0.0137024-0.0937996-0.0400009-0.1855011-0.0771027-0.2743988c-0.0381012-0.0898018-0.097702-0.1581993-0.1787033-0.205101
		c-0.0820007-0.0469017-0.1826019-0.0703011-0.3018036-0.0703011c-0.097702,0-0.1816025,0.0155983-0.2538986,0.0488014
		s-0.1298981,0.0761986-0.1718979,0.1299019c-0.0419998,0.0527-0.0752029,0.1200981-0.0986023,0.2020988
		s-0.0400009,0.1610985-0.0478973,0.2373009c-0.0077972,0.0770988-0.0117035,0.1660004-0.0117035,0.2666016
		s0.0038986,0.1884995,0.0117035,0.2655983s0.0243988,0.1562004,0.0478973,0.2373009
		c0.0233994,0.0820007,0.0566025,0.1493988,0.0986023,0.2030983c0.0419998,0.0527,0.0996017,0.0956993,0.1718979,0.1288986
		s0.1561966,0.0498009,0.2538986,0.0498009c0.1191025,0,0.2197037-0.0233994,0.3018036-0.0713005
		c0.0811005-0.0469017,0.1406021-0.1152,0.1787033-0.2041016C125.3206024,34.1049995,125.3469009,34.0131989,125.3606033,33.9193993
		z"/>
	<path class="st0" d="M128.3654938,34.7426987h-0.3339996v-0.2588005c-0.1669998,0.1913986-0.3848038,0.2871017-0.6542969,0.2871017
		c-0.2548981,0-0.4541016-0.0723-0.597702-0.2168007c-0.1572037-0.1533012-0.2353973-0.3700981-0.2353973-0.6493988v-1.4775009
		h0.3388977v1.4258003c0,0.2011986,0.0487976,0.3544998,0.1474991,0.4589996
		c0.0996017,0.1054993,0.2382965,0.1581993,0.4169998,0.1581993s0.3202972-0.0536995,0.4237976-0.1601982
		s0.155304-0.2588005,0.155304-0.4570007v-1.4258003h0.3388977V34.7426987z"/>
	<path class="st0" d="M130.9875946,33.6743011h-1.5625c0,0.2578011,0.0576019,0.455101,0.1737976,0.5928001
		c0.1161957,0.1386986,0.285202,0.2080002,0.5077972,0.2080002c0.1318054,0,0.2431946-0.0205002,0.3320007-0.0615005
		c0.089798-0.0410004,0.1815948-0.1083984,0.2754059-0.2020988l0.2304993,0.2020988
		c-0.125,0.125-0.2510071,0.2168007-0.3760071,0.2724991c-0.1260071,0.0565987-0.282196,0.0849991-0.4707031,0.0849991
		c-0.3202972,0-0.5693054-0.0976982-0.7460938-0.2938995c-0.1777039-0.1963005-0.2655945-0.4931984-0.2655945-0.8916016
		c0-0.3740005,0.0839996-0.6650009,0.2539062-0.8730011c0.1688995-0.2089996,0.4013977-0.3134995,0.6963043-0.3134995
		c0.2978973,0,0.5312042,0.0996017,0.6992035,0.2988014s0.2519989,0.4746017,0.2519989,0.8261986v0.1502037H130.9875946z
		 M130.653595,33.4203987c-0.0126953-0.1786995-0.0381012-0.3075981-0.0762024-0.3857002
		c-0.1094055-0.232399-0.2899933-0.3485985-0.5410004-0.3485985s-0.4315948,0.1161995-0.5410004,0.3485985
		c-0.0381012,0.0811005-0.0614929,0.2099991-0.0702972,0.3857002H130.653595z"/>
</g>
<g>
	<path class="st0" d="M134.8137054,34.7426987h-0.2402039c-0.1914062,0-0.3379059-0.0575981-0.4403992-0.1738014
		c-0.101593-0.1161995-0.152298-0.2655983-0.152298-0.4473v-1.4355965h-0.2920074v-0.2588005h0.2920074V31.716301h0.3388977
		v0.7108994h0.4940948v0.2588005h-0.4940948v1.4258003c0,0.2266006,0.1045074,0.3389015,0.3144989,0.3389015h0.1797028v0.291996
		H134.8137054z"/>
</g>
<g>
	<path class="st0" d="M137.3273926,34.7426987h-0.3388977v-1.4306984c0-0.2001991-0.0498047-0.3525009-0.148407-0.4561005
		s-0.2373047-0.1553001-0.4160004-0.1553001c-0.1826019,0-0.3242035,0.0517998-0.4268036,0.1553001
		c-0.101593,0.1035004-0.152298,0.2559013-0.152298,0.4561005v1.4306984h-0.3388977v-3.3505993h0.3388977v1.2890987
		c0.1688995-0.1875,0.3856964-0.2821999,0.6493988-0.2821999c0.2597961,0,0.4638977,0.0770988,0.6112976,0.2304993
		c0.1475067,0.1543007,0.2216949,0.3623009,0.2216949,0.6259995v1.4872017H137.3273926z"/>
	<path class="st0" d="M139.9259949,33.6743011h-1.5625c0,0.2578011,0.0576019,0.455101,0.1737976,0.5928001
		c0.1161957,0.1386986,0.285202,0.2080002,0.5077972,0.2080002c0.1318054,0,0.2431946-0.0205002,0.3320007-0.0615005
		c0.089798-0.0410004,0.1815948-0.1083984,0.2754059-0.2020988l0.2304993,0.2020988
		c-0.125,0.125-0.2510071,0.2168007-0.3760071,0.2724991c-0.1260071,0.0565987-0.282196,0.0849991-0.4707031,0.0849991
		c-0.3202972,0-0.5693054-0.0976982-0.7460938-0.2938995c-0.1777039-0.1963005-0.2655945-0.4931984-0.2655945-0.8916016
		c0-0.3740005,0.0839996-0.6650009,0.2539062-0.8730011c0.1688995-0.2089996,0.4013977-0.3134995,0.6963043-0.3134995
		c0.2978973,0,0.5312042,0.0996017,0.6992035,0.2988014s0.2519989,0.4746017,0.2519989,0.8261986v0.1502037H139.9259949z
		 M139.5921021,33.4203987c-0.0126953-0.1786995-0.0381012-0.3075981-0.0762024-0.3857002
		c-0.1094055-0.232399-0.2899933-0.3485985-0.5410004-0.3485985s-0.4315948,0.1161995-0.5410004,0.3485985
		c-0.0381012,0.0811005-0.0614929,0.2099991-0.0702972,0.3857002H139.5921021z M139.5724945,31.2269993l-0.4940948,0.7196999
		h-0.3242035l0.4277039-0.7196999H139.5724945z"/>
	<path class="st0" d="M142.4152985,33.5853996c0,0.4229012-0.094696,0.7304993-0.282196,0.9219017
		c-0.1699066,0.1758003-0.3905945,0.2636986-0.664093,0.2636986c-0.2725067,0-0.4940948-0.0878983-0.6631012-0.2636986
		c-0.1885071-0.1913986-0.2832031-0.4990005-0.2832031-0.9219017c0-0.4267998,0.094696-0.7344017,0.2832031-0.9229012
		c0.1688995-0.1758003,0.3905945-0.2636986,0.6631012-0.2636986c0.273407,0,0.4940948,0.0878983,0.664093,0.2636986
		C142.3206024,32.8511009,142.4152985,33.158699,142.4152985,33.5853996z M142.0764008,33.5853996
		c0-0.3544998-0.0614929-0.5937996-0.1835938-0.7158012c-0.1132965-0.1133003-0.2539062-0.1688995-0.4237976-0.1688995
		c-0.1660004,0-0.3056946,0.0556984-0.4188995,0.1688995c-0.125,0.1259995-0.1885071,0.3642998-0.1885071,0.7158012
		s0.0635071,0.5898018,0.1885071,0.7148018c0.1132965,0.1133003,0.2528992,0.169899,0.4188995,0.169899
		c0.1699066,0,0.3105011-0.0565987,0.4237976-0.169899C142.0148926,34.1753006,142.0764008,33.9370003,142.0764008,33.5853996z"/>
	<path class="st0" d="M144.6838989,32.6156998l-0.25,0.2538986c-0.0625-0.0625-0.1230011-0.1063995-0.1806946-0.1318016
		c-0.0585938-0.0253983-0.1318054-0.0371017-0.219696-0.0371017c-0.1660004,0-0.2998047,0.0586014-0.402298,0.1758003
		c-0.101593,0.1181984-0.152298,0.2666016-0.152298,0.4453011v1.4208984h-0.3388977v-2.3153992h0.3388977v0.2821999
		c0.0625-0.0966988,0.152298-0.1729012,0.2704926-0.2275009c0.1172028-0.0556984,0.2440948-0.0830002,0.3789062-0.0830002
		C144.3538055,32.3988991,144.5393066,32.471199,144.6838989,32.6156998z"/>
</g>
<g>
	<path class="st0" d="M145.9212036,31.7681007h-0.3818054v-0.3808994h0.3818054V31.7681007z M145.8977051,34.7426987h-0.3388977
		v-2.3153992h0.3388977V34.7426987z"/>
	<path class="st0" d="M148.462204,35.778801h-0.3388977v-1.3086014c-0.160202,0.2001991-0.3778992,0.3008003-0.6542969,0.3008003
		c-0.2422028,0-0.4297028-0.0674019-0.5644989-0.2020988c-0.1885071-0.1913986-0.2832031-0.5195007-0.2832031-0.9833984
		c0-0.4678001,0.094696-0.7958984,0.2832031-0.9844017c0.1347961-0.1348,0.3222961-0.2020988,0.5644989-0.2020988
		c0.2792969,0,0.4989929,0.1006012,0.6591949,0.3017998v-0.2733994h0.3339996V35.778801z M148.1018066,33.9193993
		c0.0146027-0.0946999,0.0214996-0.2061005,0.0214996-0.3339996c0-0.1288986-0.0068054-0.2402-0.0214996-0.3349991
		c-0.0137024-0.0937996-0.0399933-0.1855011-0.0771027-0.2743988c-0.0381012-0.0898018-0.097702-0.1581993-0.1786957-0.205101
		c-0.0820007-0.0469017-0.1826019-0.0703011-0.3018036-0.0703011c-0.097702,0-0.1815948,0.0155983-0.2539062,0.0488014
		s-0.1298981,0.0761986-0.1719055,0.1299019c-0.0420074,0.0527-0.0751953,0.1200981-0.0986023,0.2020988
		s-0.0399933,0.1610985-0.0478973,0.2373009c-0.0077972,0.0770988-0.0117035,0.1660004-0.0117035,0.2666016
		s0.0039062,0.1884995,0.0117035,0.2655983s0.0243988,0.1562004,0.0478973,0.2373009
		c0.023407,0.0820007,0.0565948,0.1493988,0.0986023,0.2030983c0.0420074,0.0527,0.0995941,0.0956993,0.1719055,0.1288986
		s0.1562042,0.0498009,0.2539062,0.0498009c0.1190948,0,0.219696-0.0233994,0.3018036-0.0713005
		c0.0811005-0.0469017,0.1405945-0.1152,0.1786957-0.2041016C148.0617981,34.1049995,148.0881958,34.0131989,148.1018066,33.9193993
		z"/>
</g>
<g>
	<path class="st0" d="M151.2590027,34.7426987h-0.3339996v-0.2588005c-0.1670074,0.1913986-0.3847961,0.2871017-0.6542969,0.2871017
		c-0.2548981,0-0.4541016-0.0723-0.597702-0.2168007c-0.157196-0.1533012-0.2353973-0.3700981-0.2353973-0.6493988v-1.4775009
		h0.3388977v1.4258003c0,0.2011986,0.0487976,0.3544998,0.1475067,0.4589996
		c0.0995941,0.1054993,0.2382965,0.1581993,0.4170074,0.1581993s0.3202972-0.0536995,0.4237976-0.1601982
		s0.155304-0.2588005,0.155304-0.4570007v-1.4258003h0.3388977v2.3153992H151.2590027z"/>
</g>
<g>
	<path class="st0" d="M153.9602051,33.6743011h-1.5625c0,0.2578011,0.0576019,0.455101,0.1737976,0.5928001
		c0.1161957,0.1386986,0.285202,0.2080002,0.5077972,0.2080002c0.1318054,0,0.2431946-0.0205002,0.3320007-0.0615005
		c0.089798-0.0410004,0.1815948-0.1083984,0.2754059-0.2020988l0.2304993,0.2020988
		c-0.125,0.125-0.2510071,0.2168007-0.3760071,0.2724991c-0.1260071,0.0565987-0.282196,0.0849991-0.4707031,0.0849991
		c-0.3202972,0-0.5693054-0.0976982-0.7460938-0.2938995c-0.1777039-0.1963005-0.2655945-0.4931984-0.2655945-0.8916016
		c0-0.3740005,0.0839996-0.6650009,0.2539062-0.8730011c0.1688995-0.2089996,0.4013977-0.3134995,0.6963043-0.3134995
		c0.2978973,0,0.5312042,0.0996017,0.6992035,0.2988014s0.2519989,0.4746017,0.2519989,0.8261986v0.1502037H153.9602051z
		 M153.6262054,33.4203987c-0.0126953-0.1786995-0.0381012-0.3075981-0.0762024-0.3857002
		c-0.1094055-0.232399-0.2899933-0.3485985-0.5410004-0.3485985s-0.4315948,0.1161995-0.5410004,0.3485985
		c-0.0381012,0.0811005-0.0614929,0.2099991-0.0702972,0.3857002H153.6262054z"/>
</g>
<g>
	<path class="st0" d="M100.8665009,13.6859999c-0.0596008,0.3109999-0.1933975,0.5546999-0.4003983,0.7319002
		S100.0052032,14.684,99.7033997,14.684c-0.3388977,0-0.6182022-0.1098995-0.8378983-0.3296003
		c-0.1474991-0.1475-0.2393036-0.3091002-0.277298-0.4849005c-0.0371017-0.1758003-0.0566025-0.4722004-0.0566025-0.8892002
		c0-0.4174995,0.0195007-0.7138996,0.0566025-0.8895998c0.0381012-0.1758003,0.1298981-0.3374004,0.277298-0.4849005
		c0.2197037-0.2196999,0.4990005-0.3296003,0.8378983-0.3296003c0.3047028,0,0.5596008,0.0879002,0.7646027,0.2636995
		c0.2061005,0.1758003,0.3388977,0.4203997,0.3983994,0.7343998h-0.3672028
		c-0.0438995-0.2103996-0.1356964-0.3760004-0.2753983-0.4966002s-0.3134995-0.1812-0.5205002-0.1812
		c-0.2285004,0-0.4218979,0.0781002-0.5781021,0.2354002c-0.1006012,0.1035004-0.1650009,0.2294998-0.1933975,0.3788996
		c-0.0282974,0.1489-0.0419998,0.4053001-0.0419998,0.7694998c0,0.3638,0.0137024,0.6201,0.0419998,0.7694998
		c0.0282974,0.1489,0.0927963,0.2749004,0.1933975,0.3783998c0.1561966,0.1571999,0.3496017,0.2354002,0.5781021,0.2354002
		c0.2070007,0,0.3817978-0.0600996,0.5253983-0.1812c0.142601-0.1205997,0.2353973-0.2861004,0.2792969-0.4966002h0.3585052
		V13.6859999z"/>
	<path class="st0" d="M103.2472992,14.6556997h-0.3388977v-0.2212c-0.0907974,0.0908003-0.1865005,0.1553001-0.2871017,0.1928997
		c-0.0996017,0.0375996-0.2275009,0.0565996-0.3808975,0.0565996c-0.2919998,0-0.5098038-0.0707998-0.6542969-0.2118998
		c-0.1162033-0.1127996-0.1737976-0.2694998-0.1737976-0.4707003c0-0.2069998,0.0692978-0.3701,0.2089996-0.4892998
		s0.3378983-0.1792002,0.5957031-0.1792002h0.6913986v-0.2212c0-0.1724005-0.0458984-0.3002996-0.1387024-0.3832998
		s-0.2441025-0.125-0.4541016-0.125c-0.1445007,0-0.2598038,0.0205002-0.3457031,0.0614996
		c-0.0868988,0.0404997-0.1660004,0.1099005-0.2372971,0.2069998l-0.2313995-0.2118998
		c0.097702-0.1317997,0.2089996-0.2227001,0.3349991-0.2728996c0.125-0.0502996,0.2871017-0.0752001,0.4843979-0.0752001
		c0.6182022,0,0.9268036,0.2573004,0.9268036,0.7720003v1.5718002H103.2472992z M102.9085007,13.8368998v-0.2495003h-0.6445007
		c-0.3486023,0-0.5224991,0.1362-0.5224991,0.4097004c0,0.2631998,0.1787033,0.3950005,0.5371017,0.3950005
		c0.2285004,0,0.3993988-0.0517998,0.5127029-0.1553001C102.8694,14.1616001,102.9085007,14.0283003,102.9085007,13.8368998z"/>
</g>
<g>
	<path class="st0" d="M106.1047974,14.6556997h-0.3388977v-1.4263c0-0.2006998-0.0507965-0.3535004-0.1503983-0.4584999
		c-0.1006012-0.1055002-0.2401962-0.1576996-0.4188995-0.1576996s-0.3192978,0.0531998-0.4218979,0.1597004
		c-0.1016006,0.1069002-0.152298,0.2593002-0.152298,0.4565001v1.4263h-0.3388977v-2.3154001h0.3388977v0.2538996
		c0.1631012-0.1879997,0.3788986-0.2821999,0.6493988-0.2821999c0.2509995,0,0.4481964,0.0723,0.5927963,0.2163
		c0.160202,0.1571999,0.2401962,0.3720999,0.2401962,0.6449995V14.6556997z"/>
	<path class="st0" d="M108.5802994,14.6556997h-0.3388977v-0.2212c-0.0907974,0.0908003-0.1865005,0.1553001-0.2871017,0.1928997
		c-0.0996017,0.0375996-0.2275009,0.0565996-0.3808975,0.0565996c-0.2919998,0-0.5098038-0.0707998-0.6542969-0.2118998
		c-0.1162033-0.1127996-0.1737976-0.2694998-0.1737976-0.4707003c0-0.2069998,0.0692978-0.3701,0.2089996-0.4892998
		s0.3378983-0.1792002,0.5957031-0.1792002h0.6913986v-0.2212c0-0.1724005-0.0458984-0.3002996-0.1387024-0.3832998
		s-0.2441025-0.125-0.4541016-0.125c-0.1445007,0-0.2598038,0.0205002-0.3457031,0.0614996
		c-0.0868988,0.0404997-0.1660004,0.1099005-0.2372971,0.2069998l-0.2313995-0.2118998
		c0.097702-0.1317997,0.2089996-0.2227001,0.3349991-0.2728996c0.125-0.0502996,0.2871017-0.0752001,0.4843979-0.0752001
		c0.6182022,0,0.9268036,0.2573004,0.9268036,0.7720003v1.5718002H108.5802994z M108.2415009,13.8368998v-0.2495003h-0.6445007
		c-0.3486023,0-0.5224991,0.1362-0.5224991,0.4097004c0,0.2631998,0.1787033,0.3950005,0.5371017,0.3950005
		c0.2285004,0,0.3993988-0.0517998,0.5127029-0.1553001C108.2024002,14.1616001,108.2415009,14.0283003,108.2415009,13.8368998z"/>
	<path class="st0" d="M111.1213989,14.6556997h-0.3339996v-0.2777996c-0.0917969,0.1162004-0.1884995,0.1962996-0.2919998,0.2402
		S110.2697983,14.684,110.1281967,14.684c-0.2422028,0-0.4297028-0.0674-0.5644989-0.2026005
		c-0.1884995-0.1913996-0.2832031-0.5190001-0.2832031-0.9834003c0-0.4678001,0.0947037-0.7953997,0.2832031-0.9839001
		c0.1348038-0.1348,0.3223038-0.2020998,0.5644989-0.2020998c0.1416016,0,0.2627029,0.0209999,0.3643036,0.0635004
		c0.1025009,0.0424995,0.1992035,0.1201,0.2900009,0.2328997v-1.3037004h0.3388977V14.6556997z M110.7610016,13.8319998
		c0.0146027-0.0942001,0.0214996-0.2055998,0.0214996-0.3339996c0-0.1288996-0.0067978-0.2402-0.0214996-0.3345003
		c-0.0137024-0.0937996-0.0400009-0.1855001-0.0771027-0.2749004c-0.0381012-0.0897999-0.097702-0.1576996-0.1787033-0.2051001
		c-0.0820007-0.0468998-0.1826019-0.0703001-0.3018036-0.0703001c-0.097702,0-0.1816025,0.0160999-0.2538986,0.0493002
		c-0.0723038,0.0326996-0.1298981,0.0761995-0.1718979,0.1294003s-0.0752029,0.1205997-0.0986023,0.2020998
		c-0.0233994,0.0819998-0.0400009,0.1611004-0.0478973,0.2377996c-0.0077972,0.0770998-0.0117035,0.1654997-0.0117035,0.2660999
		s0.0038986,0.1890001,0.0117035,0.2656002c0.0077972,0.0770998,0.0243988,0.1562004,0.0478973,0.2377996
		s0.0566025,0.1489,0.0986023,0.2026005c0.0419998,0.0531998,0.0996017,0.0962,0.1718979,0.1294003
		c0.0723038,0.0326996,0.1561966,0.0493002,0.2538986,0.0493002c0.1191025,0,0.2197037-0.0234003,0.3018036-0.0707998
		c0.0811005-0.0468998,0.1406021-0.1152,0.1787033-0.2046003C110.7210007,14.0180998,110.7472992,13.9263,110.7610016,13.8319998z"
		/>
	<path class="st0" d="M112.3312988,11.6810999h-0.3817978v-0.3813h0.3817978V11.6810999z M112.3078995,14.6556997h-0.3388977
		v-2.3154001h0.3388977V14.6556997z"/>
	<path class="st0" d="M114.8069,14.6556997h-0.3388977v-0.2212c-0.0907974,0.0908003-0.1865005,0.1553001-0.2871017,0.1928997
		c-0.0996017,0.0375996-0.2275009,0.0565996-0.3808975,0.0565996c-0.2919998,0-0.5098038-0.0707998-0.6542969-0.2118998
		c-0.1162033-0.1127996-0.1737976-0.2694998-0.1737976-0.4707003c0-0.2069998,0.0692978-0.3701,0.2089996-0.4892998
		s0.3378983-0.1792002,0.5957031-0.1792002h0.6913986v-0.2212c0-0.1724005-0.0458984-0.3002996-0.1387024-0.3832998
		s-0.2441025-0.125-0.4541016-0.125c-0.1445007,0-0.2598038,0.0205002-0.3457031,0.0614996
		c-0.0868988,0.0404997-0.1660004,0.1099005-0.2372971,0.2069998l-0.2313995-0.2118998
		c0.097702-0.1317997,0.2089996-0.2227001,0.3349991-0.2728996c0.125-0.0502996,0.2871017-0.0752001,0.4843979-0.0752001
		c0.6182022,0,0.9268036,0.2573004,0.9268036,0.7720003v1.5718002H114.8069z M114.4680023,13.8368998v-0.2495003h-0.6445007
		c-0.3486023,0-0.5224991,0.1362-0.5224991,0.4097004c0,0.2631998,0.1787033,0.3950005,0.5371017,0.3950005
		c0.2285004,0,0.3993988-0.0517998,0.5127029-0.1553001C114.4290009,14.1616001,114.4680023,14.0283003,114.4680023,13.8368998z"/>
	<path class="st0" d="M117.4514008,14.6556997h-0.3388977v-1.4263c0-0.2006998-0.0507965-0.3535004-0.1503983-0.4584999
		c-0.1006012-0.1055002-0.2401962-0.1576996-0.4188995-0.1576996s-0.3192978,0.0531998-0.4218979,0.1597004
		c-0.1016006,0.1069002-0.152298,0.2593002-0.152298,0.4565001v1.4263h-0.3388977v-2.3154001h0.3388977v0.2538996
		c0.1631012-0.1879997,0.3788986-0.2821999,0.6493988-0.2821999c0.2509995,0,0.4481964,0.0723,0.5927963,0.2163
		c0.160202,0.1571999,0.2401962,0.3720999,0.2401962,0.6449995V14.6556997z"/>
</g>
<g>
	<path class="st0" d="M120.1956024,14.6556997h-0.3583984v-3.3511h0.3583984V14.6556997z"/>
</g>
<g>
	<path class="st0" d="M122.9396973,14.6556997h-0.3388977v-1.4263c0-0.2006998-0.0507965-0.3535004-0.1503983-0.4584999
		c-0.1006012-0.1055002-0.2401962-0.1576996-0.4188995-0.1576996s-0.3192978,0.0531998-0.4218979,0.1597004
		c-0.1016006,0.1069002-0.152298,0.2593002-0.152298,0.4565001v1.4263h-0.3388977v-2.3154001h0.3388977v0.2538996
		c0.1631012-0.1879997,0.3788986-0.2821999,0.6493988-0.2821999c0.2509995,0,0.4481964,0.0723,0.5927963,0.2163
		c0.160202,0.1571999,0.2401962,0.3720999,0.2401962,0.6449995V14.6556997z"/>
	<path class="st0" d="M125.4347992,13.9779997c0,0.2196999-0.0858994,0.3921003-0.2567978,0.5176001
		s-0.3993988,0.1885004-0.6846008,0.1885004c-0.4082031,0-0.7246017-0.1113005-0.9512024-0.3345003l0.2266006-0.2256002
		c0.1688995,0.1787004,0.4092026,0.2680998,0.7197037,0.2680998c0.1942978,0,0.3457031-0.0341997,0.4541016-0.1035004
		c0.1083984-0.0688,0.1621017-0.1709003,0.1621017-0.3057003c0-0.2040997-0.1278992-0.3169003-0.3856964-0.3388996
		l-0.3808975-0.0332003c-0.4618988-0.0375996-0.6923981-0.2446003-0.6923981-0.6211004
		c0-0.2069998,0.0791016-0.3720999,0.2353973-0.4940996c0.1572037-0.1225996,0.3622971-0.1836004,0.6172028-0.1836004
		c0.347702,0,0.6259995,0.0830002,0.8330002,0.2495003l-0.2217026,0.2212
		c-0.160202-0.1225996-0.3651962-0.1836004-0.6162033-0.1836004c-0.1669998,0-0.2938995,0.0326996-0.3837967,0.0986004
		s-0.1337967,0.1602001-0.1337967,0.2826996c0,0.1035004,0.0322037,0.1815996,0.0986023,0.2348995
		c0.0653992,0.0537004,0.1708984,0.0879002,0.3153992,0.1040001l0.3622971,0.0326996
		c0.2197037,0.0220003,0.3877029,0.0801001,0.5058975,0.1743002C125.3752975,13.6201,125.4347992,13.7709999,125.4347992,13.9779997
		z"/>
	<path class="st0" d="M126.9876022,14.6556997h-0.2401962c-0.1913986,0-0.3378983-0.0580997-0.4403992-0.1743002
		c-0.1016006-0.1156998-0.152298-0.2651005-0.152298-0.4468002v-1.4355001h-0.2919998v-0.2587996h0.2919998v-0.7109003h0.3388977
		v0.7109003h0.4941025v0.2587996h-0.4941025v1.4258003c0,0.2261,0.1044998,0.3388996,0.3144989,0.3388996h0.1797028v0.2919006
		H126.9876022z"/>
	<path class="st0" d="M128.0227051,11.6810999h-0.3817978v-0.3813h0.3817978V11.6810999z M127.9992981,14.6556997h-0.3388977
		v-2.3154001h0.3388977V14.6556997z"/>
	<path class="st0" d="M129.7355957,14.6556997h-0.2402039c-0.1914062,0-0.3379059-0.0580997-0.4403992-0.1743002
		c-0.101593-0.1156998-0.152298-0.2651005-0.152298-0.4468002v-1.4355001h-0.2920074v-0.2587996h0.2920074v-0.7109003h0.3388977
		v0.7109003h0.4940948v0.2587996h-0.4940948v1.4258003c0,0.2261,0.1045074,0.3388996,0.3144989,0.3388996h0.1797028v0.2919006
		H129.7355957z"/>
	<path class="st0" d="M132.2062988,14.6556997h-0.3339996v-0.2586994c-0.1670074,0.1913996-0.3847961,0.2870998-0.6542969,0.2870998
		c-0.2548981,0-0.4541016-0.0723-0.597702-0.2167997c-0.157196-0.1533003-0.2353973-0.3701-0.2353973-0.6493998v-1.4775h0.3388977
		v1.4258003c0,0.2011995,0.0487976,0.3540001,0.1475067,0.4589996c0.0995941,0.1049995,0.2382965,0.1576996,0.4170074,0.1576996
		s0.3202972-0.0531998,0.4237976-0.1602001c0.1035004-0.1063995,0.155304-0.2587996,0.155304-0.4565001v-1.4258003h0.3388977v2.3153
		H132.2062988z"/>
</g>
<g>
	<path class="st0" d="M134.489502,14.6556997h-0.2402039c-0.1914062,0-0.3379059-0.0580997-0.4403992-0.1743002
		c-0.101593-0.1156998-0.152298-0.2651005-0.152298-0.4468002v-1.4355001h-0.2920074v-0.2587996h0.2920074v-0.7109003h0.3388977
		v0.7109003h0.4940948v0.2587996h-0.4940948v1.4258003c0,0.2261,0.1045074,0.3388996,0.3144989,0.3388996h0.1797028v0.2919006
		H134.489502z"/>
	<path class="st0" d="M136.9367981,13.5874004h-1.5625c0,0.2573004,0.0576019,0.4551001,0.1737976,0.5928001
		c0.1161957,0.1381998,0.285202,0.2075005,0.5077972,0.2075005c0.1318054,0,0.2431946-0.0205002,0.3320007-0.0614996
		c0.089798-0.0404997,0.1815948-0.1078997,0.2754059-0.2020998l0.2304993,0.2020998
		c-0.125,0.1254997-0.2510071,0.2167997-0.3760071,0.2728996c-0.1260071,0.0565996-0.282196,0.085-0.4707031,0.085
		c-0.3202972,0-0.5693054-0.0980997-0.7460938-0.2944002c-0.1777039-0.1957998-0.2655945-0.4932003-0.2655945-0.8915997
		c0-0.3734999,0.0839996-0.6646004,0.2539062-0.8730001c0.1688995-0.2084999,0.4013977-0.3129997,0.6963043-0.3129997
		c0.2978973,0,0.5312042,0.0995998,0.6992035,0.2987995s0.2519989,0.4745998,0.2519989,0.8262005v0.1502991H136.9367981z
		 M136.6027985,13.3330002c-0.0126953-0.1787004-0.0381012-0.3071003-0.0762024-0.3857002
		c-0.1094055-0.2319002-0.2899933-0.3480997-0.5410004-0.3480997s-0.4315948,0.1162004-0.5410004,0.3480997
		c-0.0381012,0.0815001-0.0614929,0.2103996-0.0702972,0.3857002H136.6027985z"/>
</g>
<g>
	<path class="st0" d="M139.7229004,12.5991001h-0.4940948v2.0566006h-0.3388977v-2.0566006h-0.2969055v-0.2587996h0.2969055
		v-0.4238005c0-0.1815996,0.0507965-0.3311005,0.152298-0.4473c0.1024933-0.1156998,0.2480011-0.1738005,0.4355011-0.1738005
		h0.2451019v0.2915001h-0.1835938c-0.2070007,0-0.3105011,0.1133003-0.3105011,0.3388996v0.4146004h0.4940948v0.2587004H139.7229004
		z"/>
</g>
<g>
	<path class="st0" d="M142.0998993,13.4980001c0,0.4232998-0.094696,0.7309999-0.282196,0.9224005
		c-0.1699066,0.1758003-0.3905945,0.2637005-0.664093,0.2637005c-0.2725067,0-0.4940948-0.0879002-0.6631012-0.2637005
		c-0.1885071-0.1913996-0.2832031-0.4989996-0.2832031-0.9223995c0-0.4267998,0.094696-0.7343998,0.2832031-0.9223995
		c0.1688995-0.1758003,0.3905945-0.2637005,0.6631012-0.2637005c0.273407,0,0.4940948,0.0879002,0.664093,0.2637005
		C142.0050964,12.7636995,142.0998993,13.0712996,142.0998993,13.4980001z M141.7610016,13.4980001
		c0-0.3544998-0.0614929-0.5932999-0.1835938-0.7152996c-0.1132965-0.1133003-0.2539062-0.1694002-0.4237976-0.1694002
		c-0.1660004,0-0.3056946,0.0562-0.4188995,0.1694002c-0.125,0.1254997-0.1885071,0.3638-0.1885071,0.7152996
		s0.0635071,0.5897999,0.1885071,0.7152996c0.1132965,0.1127996,0.2528992,0.1694002,0.4188995,0.1694002
		c0.1699066,0,0.3105011-0.0565996,0.4237976-0.1694002C141.6994934,14.0879002,141.7610016,13.8495998,141.7610016,13.4980001z"/>
	<path class="st0" d="M144.3683929,12.5283003l-0.25,0.2544003c-0.0625-0.0629997-0.1230011-0.1069002-0.1806946-0.1317997
		c-0.0585938-0.0254002-0.1318054-0.0375996-0.219696-0.0375996c-0.1660004,0-0.2998047,0.0586004-0.402298,0.1763
		c-0.101593,0.1176996-0.152298,0.2660999-0.152298,0.4448004v1.4214001h-0.3388977v-2.3154001h0.3388977v0.2821999
		c0.0625-0.0972004,0.152298-0.1732998,0.2704926-0.2279997c0.1172028-0.0551996,0.2440948-0.0825005,0.3789062-0.0825005
		C144.0382996,12.3120003,144.2239075,12.3843002,144.3683929,12.5283003z"/>
</g>
<g>
	<path class="st0" d="M100.6116028,16.8022003h-0.9688034v3.0307999h-0.3583984v-3.0307999h-0.9688034v-0.3202991h2.2958984
		v0.3202991H100.6116028z"/>
	<path class="st0" d="M102.9982986,19.8330002h-0.3388977v-1.4307003c0-0.2007008-0.0497971-0.3530006-0.1483994-0.4564991
		s-0.2372971-0.1553001-0.4160004-0.1553001c-0.1826019,0-0.3242035,0.0517998-0.4268036,0.1553001
		c-0.1016006,0.1035004-0.152298,0.2558994-0.152298,0.4564991v1.4307003h-0.3388977v-3.3511009h0.3388977v1.2896004
		c0.1688995-0.1879997,0.3856964-0.2821999,0.6493988-0.2821999c0.2598038,0,0.4638977,0.0767002,0.6112976,0.2304993
		s0.2217026,0.3623009,0.2217026,0.6259995V19.8330002z"/>
</g>
<g>
	<path class="st0" d="M105.8264008,18.7646008h-1.5625c0,0.2572994,0.0576019,0.4550991,0.1737976,0.5928001
		c0.1162033,0.1382008,0.285202,0.2075005,0.5077972,0.2075005c0.1317978,0,0.2432022-0.0205002,0.3320007-0.0615005
		c0.089798-0.0405006,0.1816025-0.1079006,0.2753983-0.2021008l0.2304993,0.2021008
		c-0.125,0.1254997-0.2509995,0.2168007-0.3759995,0.2728996c-0.1259995,0.0566006-0.2822037,0.0849991-0.4707031,0.0849991
		c-0.3202972,0-0.5692978-0.0981007-0.7461014-0.2943993c-0.1776962-0.1958008-0.2656021-0.4932003-0.2656021-0.8915997
		c0-0.3735008,0.0839996-0.6646004,0.2538986-0.8729992c0.1688995-0.2084999,0.4013977-0.3129997,0.6962967-0.3129997
		c0.2978973,0,0.5311966,0.0995998,0.6992035,0.2987995s0.2519989,0.4745998,0.2519989,0.8262005v0.1502991H105.8264008z
		 M105.4924011,18.5102005c-0.0127029-0.1786995-0.0381012-0.3071003-0.0762024-0.3857002
		c-0.1093979-0.2318993-0.2900009-0.3481007-0.5410004-0.3481007s-0.4316025,0.1161995-0.5410004,0.3481007
		c-0.0381012,0.0814991-0.0615005,0.2103996-0.0702972,0.3857002H105.4924011z"/>
	<path class="st0" d="M108.3156967,18.6753006c0,0.4232998-0.0947037,0.7310009-0.2822037,0.9223995
		c-0.169899,0.1758003-0.3906021,0.2637005-0.6641006,0.2637005c-0.2724991,0-0.4941025-0.0879002-0.6631012-0.2637005
		c-0.1884995-0.1914005-0.2832031-0.4990005-0.2832031-0.9223995c0-0.4267998,0.0947037-0.7343998,0.2832031-0.9223995
		c0.1688995-0.1758003,0.3906021-0.2637005,0.6631012-0.2637005c0.2733994,0,0.4941025,0.0879002,0.6641006,0.2637005
		C108.2210007,17.9409008,108.3156967,18.2485008,108.3156967,18.6753006z M107.976799,18.6753006
		c0-0.3544998-0.0615005-0.5932999-0.1836014-0.7152996c-0.1132965-0.1133003-0.2538986-0.1693993-0.4237976-0.1693993
		c-0.1660004,0-0.3057022,0.0562-0.4188995,0.1693993c-0.125,0.1254997-0.1884995,0.3638-0.1884995,0.7152996
		s0.0634995,0.5897999,0.1884995,0.7152996c0.1132965,0.1128006,0.2528992,0.1693993,0.4188995,0.1693993
		c0.169899,0,0.3105011-0.0566006,0.4237976-0.1693993C107.9152985,19.2651005,107.976799,19.0268002,107.976799,18.6753006z"/>
	<path class="st0" d="M110.5851974,17.7056007l-0.25,0.2544003c-0.0625-0.0629997-0.1230011-0.1068993-0.1807022-0.1317997
		c-0.0586014-0.0254002-0.1317978-0.0375996-0.2197037-0.0375996c-0.1660004,0-0.2997971,0.0585995-0.402298,0.1763
		c-0.1016006,0.1177006-0.152298,0.2660999-0.152298,0.4447994v1.4214001h-0.3388977v-2.3153992h0.3388977v0.2821999
		c0.0625-0.0972004,0.152298-0.1732998,0.2705002-0.2280006c0.1172028-0.0552006,0.2441025-0.0825005,0.3788986-0.0825005
		C110.2550964,17.4892006,110.4406967,17.5615005,110.5851974,17.7056007z"/>
	<path class="st0" d="M112.7970963,18.7646008h-1.5625c0,0.2572994,0.0576019,0.4550991,0.1737976,0.5928001
		c0.1162033,0.1382008,0.285202,0.2075005,0.5077972,0.2075005c0.1317978,0,0.2432022-0.0205002,0.3320007-0.0615005
		c0.089798-0.0405006,0.1816025-0.1079006,0.2753983-0.2021008l0.2304993,0.2021008
		c-0.125,0.1254997-0.2509995,0.2168007-0.3759995,0.2728996c-0.1259995,0.0566006-0.2822037,0.0849991-0.4707031,0.0849991
		c-0.3202972,0-0.5692978-0.0981007-0.7461014-0.2943993c-0.1776962-0.1958008-0.2656021-0.4932003-0.2656021-0.8915997
		c0-0.3735008,0.0839996-0.6646004,0.2538986-0.8729992c0.1688995-0.2084999,0.4013977-0.3129997,0.6962967-0.3129997
		c0.2978973,0,0.5311966,0.0995998,0.6992035,0.2987995s0.2519989,0.4745998,0.2519989,0.8262005v0.1502991H112.7970963z
		 M112.4632034,18.5102005c-0.0127029-0.1786995-0.0381012-0.3071003-0.0762024-0.3857002
		c-0.1093979-0.2318993-0.2900009-0.3481007-0.5410004-0.3481007s-0.4316025,0.1161995-0.5410004,0.3481007
		c-0.0381012,0.0814991-0.0615005,0.2103996-0.0702972,0.3857002H112.4632034z"/>
	<path class="st0" d="M114.4065018,19.8330002h-0.2401962c-0.1913986,0-0.3378983-0.0580997-0.4403992-0.1742992
		c-0.1016006-0.1156998-0.152298-0.2651005-0.152298-0.4468002v-1.4354992h-0.2919998V17.517601h0.2919998v-0.7108994h0.3388977
		v0.7108994h0.4941025v0.2588005h-0.4941025v1.4258003c0,0.2261009,0.1044998,0.3388996,0.3144989,0.3388996h0.1797028v0.2918987
		H114.4065018z"/>
	<path class="st0" d="M115.4417038,16.8584003h-0.3817978v-0.3814011h0.3817978V16.8584003z M115.4181976,19.8330002h-0.3388977
		V17.517601h0.3388977V19.8330002z"/>
	<path class="st0" d="M117.9260025,19.5175991c-0.1191025,0.1289005-0.2353973,0.2182999-0.3486023,0.2686005
		c-0.1122971,0.0498009-0.2509995,0.0751991-0.4141006,0.0751991c-0.3037033,0-0.5507965-0.1021004-0.7412033-0.3062
		c-0.1894989-0.2035999-0.2842026-0.4971008-0.2842026-0.8799s0.0947037-0.6763,0.2842026-0.8803997
		c0.1903992-0.2035999,0.4375-0.3057003,0.7412033-0.3057003c0.1631012,0,0.3018036,0.0249004,0.4141006,0.0751991
		c0.1132965,0.0503006,0.2294998,0.1396008,0.3486023,0.2681007l-0.2304993,0.2168007
		c-0.0878983-0.0972004-0.1708984-0.1650009-0.25-0.2026005c-0.0781021-0.0375996-0.1718979-0.0562-0.2822037-0.0562
		c-0.2353973,0-0.4141006,0.0879002-0.5361023,0.2632008c-0.1006012,0.1415997-0.1503983,0.3486004-0.1503983,0.6215992
		s0.0497971,0.4799995,0.1503983,0.6210995c0.1221008,0.1758003,0.3007965,0.2637005,0.5361023,0.2637005
		c0.1103973,0,0.2041016-0.0195007,0.2822037-0.0590992c0.0791016-0.0391006,0.1621017-0.1074009,0.25-0.2045994
		L117.9260025,19.5175991z"/>
	<path class="st0" d="M120.2229004,19.8330002h-0.3388977v-0.2212009c-0.0907974,0.0907993-0.1865005,0.1553001-0.2871017,0.1928997
		c-0.0996017,0.0375996-0.2275009,0.0566006-0.3808975,0.0566006c-0.2919998,0-0.5098038-0.0708008-0.6542969-0.2119007
		c-0.1162033-0.1128006-0.1737976-0.2695007-0.1737976-0.4706993c0-0.2070007,0.0692978-0.3701,0.2089996-0.4892998
		s0.3378983-0.1791992,0.5957031-0.1791992h0.6913986v-0.2212009c0-0.1723995-0.0458984-0.3003006-0.1387024-0.3833008
		s-0.2441025-0.125-0.4541016-0.125c-0.1445007,0-0.2598038,0.0205002-0.3457031,0.0615005
		c-0.0868988,0.0405006-0.1660004,0.1098995-0.2372971,0.2070007l-0.2313995-0.2119007
		c0.097702-0.1317997,0.2089996-0.2227001,0.3349991-0.2728996c0.125-0.0503006,0.2871017-0.0751991,0.4843979-0.0751991
		c0.6182022,0,0.9268036,0.2572994,0.9268036,0.7719994v1.5718002H120.2229004z M119.8840027,19.0140991v-0.2495003h-0.6445007
		c-0.3486023,0-0.5224991,0.1362-0.5224991,0.4097004c0,0.2632008,0.1787033,0.3950005,0.5371017,0.3950005
		c0.2285004,0,0.3993988-0.0517998,0.5127029-0.1553001C119.8450012,19.3388996,119.8840027,19.2056007,119.8840027,19.0140991z"/>
</g>
<g>
	<path class="st0" d="M122.5715027,19.8330002h-0.2441025c-0.1952972,0-0.3417969-0.0566006-0.4403992-0.1693993
		s-0.1483994-0.2616997-0.1483994-0.4473v-2.7343998h0.3388977v2.7201996c0,0.1161995,0.0233994,0.2017002,0.0702972,0.2567997
		c0.0478973,0.0547009,0.1278992,0.0820007,0.2401962,0.0820007h0.1836014v0.292099H122.5715027z"/>
</g>
<g>
	<path class="st0" d="M126.6203995,19.8330002h-0.3817978l-0.267601-0.7577991h-1.4638977l-0.2686005,0.7577991h-0.3808975
		l1.2333984-3.3511009h0.3007965L126.6203995,19.8330002z M125.8674011,18.7646008L125.2462997,16.9951l-0.6308975,1.7695007
		H125.8674011z"/>
	<path class="st0" d="M128.771698,19.1553001c0,0.2196999-0.085907,0.3920994-0.2568054,0.5175991
		s-0.3993988,0.1884995-0.6846008,0.1884995c-0.4082031,0-0.7246017-0.1112995-0.9512024-0.3344994L127.10569,19.3013
		c0.1688995,0.1786995,0.4092026,0.2681007,0.7197037,0.2681007c0.1943054,0,0.3457031-0.0342007,0.4541016-0.1035004
		c0.1083984-0.0688,0.1620941-0.1709003,0.1620941-0.3057003c0-0.2040997-0.1278992-0.3169003-0.3856964-0.3388996
		l-0.3808975-0.0331993c-0.4618988-0.0375996-0.6923981-0.2446003-0.6923981-0.6210995
		c0-0.2070007,0.0791016-0.3721008,0.2353973-0.4941006c0.1572037-0.1226006,0.3622971-0.1835995,0.6172028-0.1835995
		c0.3476944,0,0.6259995,0.0830002,0.8330002,0.2495003l-0.2216949,0.2212009
		c-0.160202-0.1226006-0.3652039-0.1835995-0.6162033-0.1835995c-0.1669998,0-0.2938995,0.0326996-0.3837967,0.0986004
		s-0.1337967,0.1602001-0.1337967,0.2826996c0,0.1035004,0.0322037,0.1816006,0.0986023,0.2348995
		c0.0653992,0.0536995,0.1708984,0.0879002,0.3153992,0.1040001l0.3622971,0.0326996
		c0.219696,0.0219994,0.3876953,0.0800991,0.5059052,0.1742992C128.712204,18.7973003,128.771698,18.9482002,128.771698,19.1553001z
		"/>
</g>
<g>
	<path class="st0" d="M130.6956024,19.8330002h-0.2402039c-0.1914062,0-0.3379059-0.0580997-0.4403992-0.1742992
		c-0.101593-0.1156998-0.152298-0.2651005-0.152298-0.4468002v-1.4354992h-0.2920074V17.517601h0.2920074v-0.7108994h0.3388977
		v0.7108994h0.4940948v0.2588005h-0.4940948v1.4258003c0,0.2261009,0.1045074,0.3388996,0.3144989,0.3388996h0.1797028v0.2918987
		H130.6956024z"/>
	<path class="st0" d="M132.9123993,17.7056007l-0.25,0.2544003c-0.0625-0.0629997-0.1230011-0.1068993-0.1806946-0.1317997
		c-0.0585938-0.0254002-0.1318054-0.0375996-0.219696-0.0375996c-0.1660004,0-0.2998047,0.0585995-0.402298,0.1763
		c-0.101593,0.1177006-0.152298,0.2660999-0.152298,0.4447994v1.4214001h-0.3388977v-2.3153992h0.3388977v0.2821999
		c0.0625-0.0972004,0.152298-0.1732998,0.2704926-0.2280006c0.1172028-0.0552006,0.2440948-0.0825005,0.3789062-0.0825005
		C132.5823059,17.4892006,132.767807,17.5615005,132.9123993,17.7056007z"/>
</g>
<g>
	<path class="st0" d="M135.2991028,18.6753006c0,0.4232998-0.094696,0.7310009-0.282196,0.9223995
		c-0.1699066,0.1758003-0.3905945,0.2637005-0.664093,0.2637005c-0.2725067,0-0.4940948-0.0879002-0.6631012-0.2637005
		c-0.1885071-0.1914005-0.2832031-0.4990005-0.2832031-0.9223995c0-0.4267998,0.094696-0.7343998,0.2832031-0.9223995
		c0.1688995-0.1758003,0.3905945-0.2637005,0.6631012-0.2637005c0.273407,0,0.4940948,0.0879002,0.664093,0.2637005
		C135.2044067,17.9409008,135.2991028,18.2485008,135.2991028,18.6753006z M134.9602051,18.6753006
		c0-0.3544998-0.0614929-0.5932999-0.1835938-0.7152996c-0.1132965-0.1133003-0.2539062-0.1693993-0.4237976-0.1693993
		c-0.1660004,0-0.3056946,0.0562-0.4188995,0.1693993c-0.125,0.1254997-0.1885071,0.3638-0.1885071,0.7152996
		s0.0635071,0.5897999,0.1885071,0.7152996c0.1132965,0.1128006,0.2528992,0.1693993,0.4188995,0.1693993
		c0.1699066,0,0.3105011-0.0566006,0.4237976-0.1693993C134.8986969,19.2651005,134.9602051,19.0268002,134.9602051,18.6753006z"/>
	<path class="st0" d="M137.8634949,18.6753006c0,0.4643993-0.0937958,0.7919998-0.282196,0.9834003
		c-0.1347961,0.1352997-0.3231964,0.2026005-0.5644989,0.2026005c-0.2763977,0-0.4940948-0.1005993-0.6542969-0.3013v1.3085995
		h-0.3388977v-3.351099h0.3388977v0.2728996c0.160202-0.2007008,0.3778992-0.3013,0.6542969-0.3013
		c0.2411957,0,0.4297028,0.0674,0.5644989,0.2021008C137.7698059,17.8799,137.8634949,18.2075005,137.8634949,18.6753006z
		 M137.5032043,19.0093002c0.0146027-0.0942001,0.0214996-0.2056007,0.0214996-0.3339996
		c0-0.1289005-0.0068054-0.2402-0.0214996-0.3344994c-0.0137024-0.0937996-0.039093-0.1854992-0.0771027-0.2749004
		c-0.0381012-0.0897999-0.097702-0.1576996-0.1786957-0.2050991c-0.0820007-0.0468998-0.1826019-0.0702991-0.3018036-0.0702991
		c-0.0966949,0-0.1815948,0.0160999-0.2539062,0.0492992c-0.0722961,0.0326996-0.1289062,0.0762005-0.1719055,0.1294003
		c-0.0420074,0.0531998-0.0751953,0.1205997-0.0986023,0.2021008c-0.023407,0.0820007-0.039093,0.1611004-0.0469055,0.2378006
		c-0.0077972,0.0771008-0.0117035,0.1655006-0.0117035,0.2660999s0.0039062,0.1889992,0.0117035,0.2656002
		c0.0077972,0.0771008,0.023407,0.1562004,0.0469055,0.2378006s0.0565948,0.1488991,0.0986023,0.2026005
		c0.0429993,0.0531998,0.0995941,0.0962009,0.1719055,0.1294003c0.0722961,0.0326996,0.157196,0.0492992,0.2539062,0.0492992
		c0.1190948,0,0.219696-0.0233994,0.3018036-0.0708008c0.0811005-0.0468998,0.1405945-0.1152,0.1786957-0.2045994
		S137.489502,19.1035004,137.5032043,19.0093002z"/>
	<path class="st0" d="M140.4104004,19.8330002h-0.3388977v-1.4307003c0-0.2007008-0.0498047-0.3530006-0.148407-0.4564991
		s-0.2373047-0.1553001-0.4160004-0.1553001c-0.1826019,0-0.3242035,0.0517998-0.4268036,0.1553001
		c-0.101593,0.1035004-0.152298,0.2558994-0.152298,0.4564991v1.4307003h-0.3388977v-3.3511009h0.3388977v1.2896004
		c0.1688995-0.1879997,0.3856964-0.2821999,0.6493988-0.2821999c0.2597961,0,0.4638977,0.0767002,0.6112976,0.2304993
		s0.2216949,0.3623009,0.2216949,0.6259995v1.4872017H140.4104004z"/>
</g>
<g>
	<path class="st0" d="M143.1154938,17.5175991l-1.0536957,2.8754997c-0.0438995,0.1226006-0.0986023,0.2133999-0.1649933,0.2728996
		c-0.1094055,0.1063995-0.2606964,0.1602001-0.4521027,0.1602001h-0.1454926v-0.3013h0.1035004
		c0.1132965,0,0.1952972-0.0205002,0.2471008-0.0610008c0.0518036-0.0410004,0.0966949-0.1161995,0.1338043-0.2261009
		l0.1649933-0.4517002l-0.8329926-2.2686005h0.3672028l0.6356964,1.8589001l0.6298981-1.8589001h0.3670807V17.5175991z"/>
	<path class="st0" d="M145.2619934,19.1553001c0,0.2196999-0.085907,0.3920994-0.2568054,0.5175991
		s-0.3993988,0.1884995-0.6846008,0.1884995c-0.4082031,0-0.7245941-0.1112995-0.9512024-0.3344994l0.226593-0.2255993
		c0.1688995,0.1786995,0.4091949,0.2681007,0.719696,0.2681007c0.1943054,0,0.3457031-0.0342007,0.4541016-0.1035004
		c0.1083984-0.0688,0.1620941-0.1709003,0.1620941-0.3057003c0-0.2040997-0.1278992-0.3169003-0.3856964-0.3388996
		l-0.3809052-0.0331993c-0.4618988-0.0375996-0.6923981-0.2446003-0.6923981-0.6210995
		c0-0.2070007,0.0791016-0.3721008,0.2353973-0.4941006c0.157196-0.1226006,0.3623047-0.1835995,0.6172028-0.1835995
		c0.347702,0,0.6260071,0.0830002,0.8329926,0.2495003l-0.2216949,0.2212009
		c-0.160202-0.1226006-0.3652039-0.1835995-0.6161957-0.1835995c-0.1670074,0-0.2938995,0.0326996-0.3838043,0.0986004
		s-0.1338043,0.1602001-0.1338043,0.2826996c0,0.1035004,0.032196,0.1816006,0.0986023,0.2348995
		c0.0653992,0.0536995,0.1708984,0.0879002,0.3153992,0.1040001l0.3623047,0.0326996
		c0.219696,0.0219994,0.3876953,0.0800991,0.5059052,0.1742992
		C145.2023926,18.7973003,145.2619934,18.9482002,145.2619934,19.1553001z"/>
</g>
<g>
	<path class="st0" d="M146.4954071,16.8584003h-0.3818054v-0.3814011h0.3818054V16.8584003z M146.4718933,19.8330002h-0.3388977
		V17.517601h0.3388977V19.8330002z"/>
	<path class="st0" d="M148.9797974,19.5175991c-0.1190948,0.1289005-0.2353973,0.2182999-0.3486023,0.2686005
		c-0.1123047,0.0498009-0.2510071,0.0751991-0.414093,0.0751991c-0.3036957,0-0.5507965-0.1021004-0.7411957-0.3062
		c-0.1894989-0.2035999-0.2841949-0.4971008-0.2841949-0.8799s0.094696-0.6763,0.2841949-0.8803997
		c0.1903992-0.2035999,0.4375-0.3057003,0.7411957-0.3057003c0.1631012,0,0.3018036,0.0249004,0.414093,0.0751991
		c0.1132965,0.0503006,0.2295074,0.1396008,0.3486023,0.2681007l-0.2304993,0.2168007
		c-0.0879059-0.0972004-0.1708984-0.1650009-0.25-0.2026005c-0.0780945-0.0375996-0.1719055-0.0562-0.282196-0.0562
		c-0.2353973,0-0.414093,0.0879002-0.5361023,0.2632008c-0.1006012,0.1415997-0.1504059,0.3486004-0.1504059,0.6215992
		s0.0498047,0.4799995,0.1504059,0.6210995c0.1221008,0.1758003,0.3007965,0.2637005,0.5361023,0.2637005
		c0.1103973,0,0.2041016-0.0195007,0.282196-0.0590992c0.0791016-0.0391006,0.1620941-0.1074009,0.25-0.2045994
		L148.9797974,19.5175991z"/>
</g>
<g>
	<path class="st0" d="M151.5462036,19.1553001c0,0.2196999-0.085907,0.3920994-0.2568054,0.5175991
		s-0.3993988,0.1884995-0.6846008,0.1884995c-0.4082031,0-0.7245941-0.1112995-0.9512024-0.3344994l0.226593-0.2255993
		c0.1688995,0.1786995,0.4091949,0.2681007,0.719696,0.2681007c0.1943054,0,0.3457031-0.0342007,0.4541016-0.1035004
		c0.1083984-0.0688,0.1620941-0.1709003,0.1620941-0.3057003c0-0.2040997-0.1278992-0.3169003-0.3856964-0.3388996
		l-0.3809052-0.0331993c-0.4618988-0.0375996-0.6923981-0.2446003-0.6923981-0.6210995
		c0-0.2070007,0.0791016-0.3721008,0.2353973-0.4941006c0.157196-0.1226006,0.3623047-0.1835995,0.6172028-0.1835995
		c0.347702,0,0.6260071,0.0830002,0.8329926,0.2495003l-0.2216949,0.2212009
		c-0.160202-0.1226006-0.3652039-0.1835995-0.6161957-0.1835995c-0.1670074,0-0.2938995,0.0326996-0.3838043,0.0986004
		s-0.1338043,0.1602001-0.1338043,0.2826996c0,0.1035004,0.032196,0.1816006,0.0986023,0.2348995
		c0.0653992,0.0536995,0.1708984,0.0879002,0.3153992,0.1040001l0.3623047,0.0326996
		c0.219696,0.0219994,0.3876953,0.0800991,0.5059052,0.1742992
		C151.4866028,18.7973003,151.5462036,18.9482002,151.5462036,19.1553001z"/>
</g>
<path class="st0" d="M59.5910988,20.2259998c-1.480999,0-2.6959991-0.5310001-3.6450005-1.4799995
	c-1.368-1.368-1.3289986-3.0570002-1.3289986-5.3920002s-0.0390015-4.0240002,1.3289986-5.3920002
	c0.9490013-0.948,2.1640015-1.48,3.6450005-1.48c2.5239983,0,4.4989967,1.4419999,4.9740028,4.2710004h-2.6780014
	C61.6221008,9.6710005,60.9401016,8.835,59.6100998,8.835c-0.7210007,0-1.3100014,0.2659998-1.6889992,0.7030001
	c-0.5139999,0.5699997-0.6660004,1.2150002-0.6660004,3.816s0.1520004,3.2469997,0.6660004,3.8150005
	c0.3790016,0.4379997,0.9679985,0.7029991,1.6889992,0.7029991c1.3300018,0,2.012001-0.8349991,2.2770004-1.9169998h2.6780014
	C64.0901031,18.7830009,62.0960999,20.2259998,59.5910988,20.2259998"/>
<rect x="66.4263" y="6.5962" class="st0" width="2.6399994" height="13.5170012"/>
<polygon class="st0" points="77.0042038,8.9496002 77.0042038,20.1126003 74.3651962,20.1126003 74.3651962,8.9496002 
	70.834198,8.9496002 70.834198,6.5956001 80.5342026,6.5956001 80.5342026,8.9496002 "/>
<path class="st0" d="M85.811203,10.5826998l-1.7099991,4.9159994h3.3610001L85.811203,10.5826998z M88.9601974,20.1126995
	l-0.7969971-2.3929996H83.360199l-0.8170013,2.3929996h-2.7529984l4.9179993-13.5170002h2.0690002l4.9349976,13.5170002H88.9601974z
	"/>
</svg>
